G04 #@! TF.GenerationSoftware,KiCad,Pcbnew,(5.0.0)*
G04 #@! TF.CreationDate,2018-11-10T23:12:02-06:00*
G04 #@! TF.ProjectId,Contra,436F6E7472612E6B696361645F706362,rev?*
G04 #@! TF.SameCoordinates,Original*
G04 #@! TF.FileFunction,Legend,Top*
G04 #@! TF.FilePolarity,Positive*
%FSLAX46Y46*%
G04 Gerber Fmt 4.6, Leading zero omitted, Abs format (unit mm)*
G04 Created by KiCad (PCBNEW (5.0.0)) date 11/10/18 23:12:02*
%MOMM*%
%LPD*%
G01*
G04 APERTURE LIST*
%ADD10C,0.100000*%
G04 APERTURE END LIST*
D10*
X50244952Y-47204380D02*
X50244952Y-47918666D01*
X50197333Y-48061523D01*
X50102095Y-48156761D01*
X49959238Y-48204380D01*
X49864000Y-48204380D01*
X51197333Y-48204380D02*
X50721142Y-48204380D01*
X50721142Y-47204380D01*
X52102095Y-48109142D02*
X52054476Y-48156761D01*
X51911619Y-48204380D01*
X51816380Y-48204380D01*
X51673523Y-48156761D01*
X51578285Y-48061523D01*
X51530666Y-47966285D01*
X51483047Y-47775809D01*
X51483047Y-47632952D01*
X51530666Y-47442476D01*
X51578285Y-47347238D01*
X51673523Y-47252000D01*
X51816380Y-47204380D01*
X51911619Y-47204380D01*
X52054476Y-47252000D01*
X52102095Y-47299619D01*
X52816380Y-47204380D02*
X52816380Y-47918666D01*
X52768761Y-48061523D01*
X52673523Y-48156761D01*
X52530666Y-48204380D01*
X52435428Y-48204380D01*
X53768761Y-48204380D02*
X53292571Y-48204380D01*
X53292571Y-47204380D01*
X54673523Y-48109142D02*
X54625904Y-48156761D01*
X54483047Y-48204380D01*
X54387809Y-48204380D01*
X54244952Y-48156761D01*
X54149714Y-48061523D01*
X54102095Y-47966285D01*
X54054476Y-47775809D01*
X54054476Y-47632952D01*
X54102095Y-47442476D01*
X54149714Y-47347238D01*
X54244952Y-47252000D01*
X54387809Y-47204380D01*
X54483047Y-47204380D01*
X54625904Y-47252000D01*
X54673523Y-47299619D01*
X55387809Y-47204380D02*
X55387809Y-47918666D01*
X55340190Y-48061523D01*
X55244952Y-48156761D01*
X55102095Y-48204380D01*
X55006857Y-48204380D01*
X56340190Y-48204380D02*
X55864000Y-48204380D01*
X55864000Y-47204380D01*
X57244952Y-48109142D02*
X57197333Y-48156761D01*
X57054476Y-48204380D01*
X56959238Y-48204380D01*
X56816380Y-48156761D01*
X56721142Y-48061523D01*
X56673523Y-47966285D01*
X56625904Y-47775809D01*
X56625904Y-47632952D01*
X56673523Y-47442476D01*
X56721142Y-47347238D01*
X56816380Y-47252000D01*
X56959238Y-47204380D01*
X57054476Y-47204380D01*
X57197333Y-47252000D01*
X57244952Y-47299619D01*
X57959238Y-47204380D02*
X57959238Y-47918666D01*
X57911619Y-48061523D01*
X57816380Y-48156761D01*
X57673523Y-48204380D01*
X57578285Y-48204380D01*
X58911619Y-48204380D02*
X58435428Y-48204380D01*
X58435428Y-47204380D01*
X59816380Y-48109142D02*
X59768761Y-48156761D01*
X59625904Y-48204380D01*
X59530666Y-48204380D01*
X59387809Y-48156761D01*
X59292571Y-48061523D01*
X59244952Y-47966285D01*
X59197333Y-47775809D01*
X59197333Y-47632952D01*
X59244952Y-47442476D01*
X59292571Y-47347238D01*
X59387809Y-47252000D01*
X59530666Y-47204380D01*
X59625904Y-47204380D01*
X59768761Y-47252000D01*
X59816380Y-47299619D01*
M02*
