G04 #@! TF.GenerationSoftware,KiCad,Pcbnew,(5.0.0)*
G04 #@! TF.CreationDate,2018-11-10T23:46:15-06:00*
G04 #@! TF.ProjectId,Contra,436F6E7472612E6B696361645F706362,rev?*
G04 #@! TF.SameCoordinates,Original*
G04 #@! TF.FileFunction,Profile,NP*
%FSLAX46Y46*%
G04 Gerber Fmt 4.6, Leading zero omitted, Abs format (unit mm)*
G04 Created by KiCad (PCBNEW (5.0.0)) date 11/10/18 23:46:15*
%MOMM*%
%LPD*%
G01*
G04 APERTURE LIST*
%ADD10C,0.100000*%
%ADD11C,0.150000*%
G04 APERTURE END LIST*
D10*
X126365148Y-102279329D02*
X159415848Y-102279329D01*
X129339148Y-88279929D02*
X126365148Y-88279929D01*
X159415848Y-101679929D02*
X160213848Y-101679929D01*
X126365148Y-88279929D02*
X126365148Y-88879329D01*
X159415848Y-102279329D02*
X159415848Y-101679929D01*
X126365148Y-101679929D02*
X126365148Y-102279329D01*
X159415848Y-88879329D02*
X159415848Y-88279929D01*
X126365148Y-88879329D02*
X125564148Y-88879329D01*
X160213848Y-88879329D02*
X159415848Y-88879329D01*
X125564148Y-101679929D02*
X126365148Y-101679929D01*
X160213848Y-101679929D02*
X160213848Y-88879329D01*
X159415848Y-88279929D02*
X156439148Y-88279929D01*
X125564148Y-88879329D02*
X125564148Y-101679929D01*
X255471000Y-44520000D02*
X255471000Y-31719400D01*
X254670000Y-31120000D02*
X240671000Y-31120000D01*
X254670000Y-31719400D02*
X254670000Y-31120000D01*
X254670000Y-44520000D02*
X255471000Y-44520000D01*
X255471000Y-31719400D02*
X254670000Y-31719400D01*
X254670000Y-45119300D02*
X254670000Y-44520000D01*
X240671000Y-44520000D02*
X240671000Y-45119300D01*
X236421000Y-31719400D02*
X235620000Y-31719400D01*
X201771000Y-44520000D02*
X202571000Y-44520000D01*
X164471000Y-44520000D02*
X164471000Y-45119300D01*
X178470000Y-44520000D02*
X179271000Y-44520000D01*
X182721000Y-44520000D02*
X183521000Y-44520000D01*
X239871000Y-44520000D02*
X240671000Y-44520000D01*
X221621000Y-45119300D02*
X235620000Y-45119300D01*
X183521000Y-44520000D02*
X183521000Y-45119300D01*
X216570000Y-45119300D02*
X216570000Y-44520000D01*
X197520000Y-31120000D02*
X183521000Y-31120000D01*
X239871000Y-31719400D02*
X239871000Y-44520000D01*
X240671000Y-31719400D02*
X239871000Y-31719400D01*
X240671000Y-31120000D02*
X240671000Y-31719400D01*
X164471000Y-31719400D02*
X163671000Y-31719400D01*
X145419000Y-44520000D02*
X145419000Y-45119300D01*
X235620000Y-31120000D02*
X221621000Y-31120000D01*
X220821000Y-31719400D02*
X220821000Y-44520000D01*
X197520000Y-44520000D02*
X198321000Y-44520000D01*
X202571000Y-45119300D02*
X216570000Y-45119300D01*
X178470000Y-31719400D02*
X178470000Y-31120000D01*
X182721000Y-31719400D02*
X182721000Y-44520000D01*
X144620000Y-44520000D02*
X145419000Y-44520000D01*
X236421000Y-44520000D02*
X236421000Y-31719400D01*
X235620000Y-45119300D02*
X235620000Y-44520000D01*
X221621000Y-44520000D02*
X221621000Y-45119300D01*
X220821000Y-44520000D02*
X221621000Y-44520000D01*
X221621000Y-31719400D02*
X220821000Y-31719400D01*
X217371000Y-31719400D02*
X216570000Y-31719400D01*
X216570000Y-44520000D02*
X217371000Y-44520000D01*
X202571000Y-31120000D02*
X202571000Y-31719400D01*
X160221000Y-31719400D02*
X159420000Y-31719400D01*
X221621000Y-31120000D02*
X221621000Y-31719400D01*
X160221000Y-44520000D02*
X160221000Y-31719400D01*
X216570000Y-31719400D02*
X216570000Y-31120000D01*
X198321000Y-44520000D02*
X198321000Y-31719400D01*
X183521000Y-31120000D02*
X183521000Y-31719400D01*
X164471000Y-45119300D02*
X178470000Y-45119300D01*
X179271000Y-44520000D02*
X179271000Y-31719400D01*
X159420000Y-45119300D02*
X159420000Y-44520000D01*
X178470000Y-45119300D02*
X178470000Y-44520000D01*
X197520000Y-31719400D02*
X197520000Y-31120000D01*
X183521000Y-31719400D02*
X182721000Y-31719400D01*
X159420000Y-31719400D02*
X159420000Y-31120000D01*
X235620000Y-31719400D02*
X235620000Y-31120000D01*
X217371000Y-44520000D02*
X217371000Y-31719400D01*
X183521000Y-45119300D02*
X197520000Y-45119300D01*
X201771000Y-31719400D02*
X201771000Y-44520000D01*
X202571000Y-31719400D02*
X201771000Y-31719400D01*
X198321000Y-31719400D02*
X197520000Y-31719400D01*
X144620000Y-31719400D02*
X144620000Y-44520000D01*
X197520000Y-45119300D02*
X197520000Y-44520000D01*
X163671000Y-31719400D02*
X163671000Y-44520000D01*
X159420000Y-31120000D02*
X145419000Y-31120000D01*
X202571000Y-44520000D02*
X202571000Y-45119300D01*
X164471000Y-31120000D02*
X164471000Y-31719400D01*
X179271000Y-31719400D02*
X178470000Y-31719400D01*
X235620000Y-44520000D02*
X236421000Y-44520000D01*
X178470000Y-31120000D02*
X164471000Y-31120000D01*
X163671000Y-44520000D02*
X164471000Y-44520000D01*
X145419000Y-45119300D02*
X159420000Y-45119300D01*
X159420000Y-44520000D02*
X160221000Y-44520000D01*
X240671000Y-45119300D02*
X254670000Y-45119300D01*
X216570000Y-31120000D02*
X202571000Y-31120000D01*
X145419000Y-31120000D02*
X145419000Y-31719400D01*
X140370000Y-31120000D02*
X126369300Y-31120000D01*
X126369300Y-44520000D02*
X126369300Y-45119300D01*
X84020800Y-44520000D02*
X84020800Y-31719400D01*
X141169000Y-44520000D02*
X141169000Y-31719400D01*
X126369300Y-45119300D02*
X140370000Y-45119300D01*
X125571300Y-44520000D02*
X126369300Y-44520000D01*
X50170700Y-44520000D02*
X50170700Y-45119300D01*
X125571300Y-31719400D02*
X125571300Y-44520000D01*
X102270000Y-31719400D02*
X102270000Y-31120000D01*
X126369300Y-31120000D02*
X126369300Y-31719400D01*
X88270700Y-45119300D02*
X102270000Y-45119300D01*
X121320000Y-31120000D02*
X107320700Y-31120000D01*
X122119400Y-31719400D02*
X121320000Y-31719400D01*
X122119400Y-44520000D02*
X122119400Y-31719400D01*
X107320700Y-45119300D02*
X121320000Y-45119300D01*
X107320700Y-44520000D02*
X107320700Y-45119300D01*
X106521300Y-44520000D02*
X107320700Y-44520000D01*
X106521300Y-31719400D02*
X106521300Y-44520000D01*
X107320700Y-31719400D02*
X106521300Y-31719400D01*
X107320700Y-31120000D02*
X107320700Y-31719400D01*
X102270000Y-31120000D02*
X88270700Y-31120000D01*
X64170000Y-31719400D02*
X64170000Y-31120000D01*
X88270700Y-44520000D02*
X88270700Y-45119300D01*
X103070800Y-31719400D02*
X102270000Y-31719400D01*
X103070800Y-44520000D02*
X103070800Y-31719400D01*
X83220000Y-44520000D02*
X84020800Y-44520000D01*
X64970800Y-44520000D02*
X64970800Y-31719400D01*
X102270000Y-44520000D02*
X103070800Y-44520000D01*
X87471300Y-44520000D02*
X88270700Y-44520000D01*
X87471300Y-31719400D02*
X87471300Y-44520000D01*
X88270700Y-31719400D02*
X87471300Y-31719400D01*
X83220000Y-31719400D02*
X83220000Y-31120000D01*
X69220700Y-45119300D02*
X83220000Y-45119300D01*
X68421300Y-44520000D02*
X69220700Y-44520000D01*
X69220700Y-44520000D02*
X69220700Y-45119300D01*
X64170000Y-31120000D02*
X50170700Y-31120000D01*
X50170700Y-31120000D02*
X50170700Y-31719400D01*
X84020800Y-31719400D02*
X83220000Y-31719400D01*
X50170700Y-45119300D02*
X64170000Y-45119300D01*
X83220000Y-45119300D02*
X83220000Y-44520000D01*
X49371400Y-44520000D02*
X50170700Y-44520000D01*
X64170000Y-44520000D02*
X64970800Y-44520000D01*
X68421300Y-31719400D02*
X68421300Y-44520000D01*
X88270700Y-31120000D02*
X88270700Y-31719400D01*
X64970800Y-31719400D02*
X64170000Y-31719400D01*
X69220700Y-31719400D02*
X68421300Y-31719400D01*
X45120200Y-31120000D02*
X31120650Y-31120000D01*
X69220700Y-31120000D02*
X69220700Y-31719400D01*
X45120200Y-31719400D02*
X45120200Y-31120000D01*
X49371400Y-31719400D02*
X49371400Y-44520000D01*
X50170700Y-31719400D02*
X49371400Y-31719400D01*
X83220000Y-31120000D02*
X69220700Y-31120000D01*
X121320000Y-45119300D02*
X121320000Y-44520000D01*
X145419000Y-31719400D02*
X144620000Y-31719400D01*
X140370000Y-31719400D02*
X140370000Y-31120000D01*
X141169000Y-31719400D02*
X140370000Y-31719400D01*
X140370000Y-44520000D02*
X141169000Y-44520000D01*
X140370000Y-45119300D02*
X140370000Y-44520000D01*
X121320000Y-44520000D02*
X122119400Y-44520000D01*
X121320000Y-31719400D02*
X121320000Y-31120000D01*
X102270000Y-45119300D02*
X102270000Y-44520000D01*
X126369300Y-31719400D02*
X125571300Y-31719400D01*
X64170000Y-45119300D02*
X64170000Y-44520000D01*
X235620000Y-101669980D02*
X236421000Y-101669980D01*
X107320700Y-88269900D02*
X107320700Y-88869400D01*
X216570000Y-102269430D02*
X216570000Y-101669980D01*
X220821000Y-101669980D02*
X221621000Y-101669980D01*
X202571000Y-102269430D02*
X216570000Y-102269430D01*
X183521000Y-101669980D02*
X183521000Y-102269430D01*
X179271000Y-101669980D02*
X179271000Y-88869400D01*
X121320000Y-102269430D02*
X121320000Y-101669980D01*
X178470000Y-101669980D02*
X179271000Y-101669980D01*
X163671000Y-88869400D02*
X163671000Y-101669980D01*
X235620000Y-102269430D02*
X235620000Y-101669980D01*
X183521000Y-88269900D02*
X183521000Y-88869400D01*
X107320700Y-102269430D02*
X121320000Y-102269430D01*
X221621000Y-101669980D02*
X221621000Y-102269430D01*
X221621000Y-88869400D02*
X220821000Y-88869400D01*
X183521000Y-102269430D02*
X197520000Y-102269430D01*
X217371000Y-88869400D02*
X216570000Y-88869400D01*
X122119400Y-88869400D02*
X121320000Y-88869400D01*
X216570000Y-101669980D02*
X217371000Y-101669980D01*
X202571000Y-101669980D02*
X202571000Y-102269430D01*
X178470000Y-88269900D02*
X164471000Y-88269900D01*
X163671000Y-101669980D02*
X164471000Y-101669980D01*
X198321000Y-88869400D02*
X197520000Y-88869400D01*
X197520000Y-102269430D02*
X197520000Y-101669980D01*
X182721000Y-101669980D02*
X183521000Y-101669980D01*
X183521000Y-88869400D02*
X182721000Y-88869400D01*
X178470000Y-88869400D02*
X178470000Y-88269900D01*
X122119400Y-101669980D02*
X122119400Y-88869400D01*
X107320700Y-101669980D02*
X107320700Y-102269430D01*
X164471000Y-101669980D02*
X164471000Y-102269430D01*
X164471000Y-88869400D02*
X163671000Y-88869400D01*
X164471000Y-88269900D02*
X164471000Y-88869400D01*
X107320700Y-88869400D02*
X106521300Y-88869400D01*
X201771000Y-88869400D02*
X201771000Y-101669980D01*
X202571000Y-88269900D02*
X202571000Y-88869400D01*
X198321000Y-101669980D02*
X198321000Y-88869400D01*
X178470000Y-102269430D02*
X178470000Y-101669980D01*
X197520000Y-101669980D02*
X198321000Y-101669980D01*
X182721000Y-88869400D02*
X182721000Y-101669980D01*
X179271000Y-88869400D02*
X178470000Y-88869400D01*
X106521300Y-101669980D02*
X107320700Y-101669980D01*
X164471000Y-102269430D02*
X178470000Y-102269430D01*
X121320000Y-88269900D02*
X107320700Y-88269900D01*
X121320000Y-88869400D02*
X121320000Y-88269900D01*
X106521300Y-88869400D02*
X106521300Y-101669980D01*
X121320000Y-101669980D02*
X122119400Y-101669980D01*
X201771000Y-101669980D02*
X202571000Y-101669980D01*
X216570000Y-88269900D02*
X202571000Y-88269900D01*
X217371000Y-101669980D02*
X217371000Y-88869400D01*
X197520000Y-88869400D02*
X197520000Y-88269900D01*
X221621000Y-102269430D02*
X235620000Y-102269430D01*
X236421000Y-101669980D02*
X236421000Y-88869400D01*
X221621000Y-88269900D02*
X221621000Y-88869400D01*
X216570000Y-88869400D02*
X216570000Y-88269900D01*
X197520000Y-88269900D02*
X183521000Y-88269900D01*
X220821000Y-88869400D02*
X220821000Y-101669980D01*
X202571000Y-88869400D02*
X201771000Y-88869400D01*
X140370000Y-69819400D02*
X140370000Y-69220000D01*
X144620000Y-82620000D02*
X145419000Y-82620000D01*
X164471000Y-69220000D02*
X164471000Y-69819400D01*
X106521300Y-82620000D02*
X107320700Y-82620000D01*
X159420000Y-69220000D02*
X145419000Y-69220000D01*
X145419000Y-82620000D02*
X145419000Y-83219400D01*
X145419000Y-83219400D02*
X159420000Y-83219400D01*
X144620000Y-69819400D02*
X144620000Y-82620000D01*
X141169000Y-69819400D02*
X140370000Y-69819400D01*
X121320000Y-82620000D02*
X122119400Y-82620000D01*
X126369300Y-69819400D02*
X125571300Y-69819400D01*
X183521000Y-69819400D02*
X182721000Y-69819400D01*
X202571000Y-82620000D02*
X202571000Y-83219400D01*
X201771000Y-82620000D02*
X202571000Y-82620000D01*
X201771000Y-69819400D02*
X201771000Y-82620000D01*
X145419000Y-69819400D02*
X144620000Y-69819400D01*
X202571000Y-69819400D02*
X201771000Y-69819400D01*
X202571000Y-69220000D02*
X202571000Y-69819400D01*
X197520000Y-69220000D02*
X183521000Y-69220000D01*
X179271000Y-69819400D02*
X178470000Y-69819400D01*
X159420000Y-83219400D02*
X159420000Y-82620000D01*
X126369300Y-69220000D02*
X126369300Y-69819400D01*
X145419000Y-69220000D02*
X145419000Y-69819400D01*
X183521000Y-69220000D02*
X183521000Y-69819400D01*
X198321000Y-69819400D02*
X197520000Y-69819400D01*
X197520000Y-83219400D02*
X197520000Y-82620000D01*
X178470000Y-69220000D02*
X164471000Y-69220000D01*
X164471000Y-83219400D02*
X178470000Y-83219400D01*
X164471000Y-82620000D02*
X164471000Y-83219400D01*
X140370000Y-83219400D02*
X140370000Y-82620000D01*
X163671000Y-82620000D02*
X164471000Y-82620000D01*
X163671000Y-69819400D02*
X163671000Y-82620000D01*
X159420000Y-69819400D02*
X159420000Y-69220000D01*
X141169000Y-82620000D02*
X141169000Y-69819400D01*
X121320000Y-83219400D02*
X121320000Y-82620000D01*
X107320700Y-69819400D02*
X106521300Y-69819400D01*
X121320000Y-69819400D02*
X121320000Y-69220000D01*
X126369300Y-82620000D02*
X126369300Y-83219400D01*
X159420000Y-82620000D02*
X160221000Y-82620000D01*
X107320700Y-82620000D02*
X107320700Y-83219400D01*
X122119400Y-69819400D02*
X121320000Y-69819400D01*
X125571300Y-82620000D02*
X126369300Y-82620000D01*
X140370000Y-82620000D02*
X141169000Y-82620000D01*
X107320700Y-83219400D02*
X121320000Y-83219400D01*
X178470000Y-69819400D02*
X178470000Y-69220000D01*
X164471000Y-69819400D02*
X163671000Y-69819400D01*
X122119400Y-82620000D02*
X122119400Y-69819400D01*
X197520000Y-69819400D02*
X197520000Y-69220000D01*
X198321000Y-82620000D02*
X198321000Y-69819400D01*
X160221000Y-69819400D02*
X159420000Y-69819400D01*
X178470000Y-83219400D02*
X178470000Y-82620000D01*
X179271000Y-82620000D02*
X179271000Y-69819400D01*
X140370000Y-69220000D02*
X126369300Y-69220000D01*
X197520000Y-82620000D02*
X198321000Y-82620000D01*
X183521000Y-83219400D02*
X197520000Y-83219400D01*
X183521000Y-82620000D02*
X183521000Y-83219400D01*
X182721000Y-82620000D02*
X183521000Y-82620000D01*
X125571300Y-69819400D02*
X125571300Y-82620000D01*
X126369300Y-83219400D02*
X140370000Y-83219400D01*
X106521300Y-69819400D02*
X106521300Y-82620000D01*
X182721000Y-69819400D02*
X182721000Y-82620000D01*
X160221000Y-82620000D02*
X160221000Y-69819400D01*
X121320000Y-69220000D02*
X107320700Y-69220000D01*
X178470000Y-82620000D02*
X179271000Y-82620000D01*
X31120650Y-83219400D02*
X45120200Y-83219400D01*
X30321390Y-82620000D02*
X31120650Y-82620000D01*
X240671000Y-102269430D02*
X254670000Y-102269430D01*
X84020800Y-69819400D02*
X83220000Y-69819400D01*
X88270700Y-83219400D02*
X102270000Y-83219400D01*
X84020800Y-82620000D02*
X84020800Y-69819400D01*
X30321390Y-69819400D02*
X30321390Y-82620000D01*
X235620000Y-88869400D02*
X235620000Y-88269900D01*
X107320700Y-69220000D02*
X107320700Y-69819400D01*
X254670000Y-101669980D02*
X255471000Y-101669980D01*
X102270000Y-69220000D02*
X88270700Y-69220000D01*
X102270000Y-69819400D02*
X102270000Y-69220000D01*
X45120200Y-69220000D02*
X31120650Y-69220000D01*
X235620000Y-88269900D02*
X221621000Y-88269900D01*
X103070800Y-69819400D02*
X102270000Y-69819400D01*
X103070800Y-82620000D02*
X103070800Y-69819400D01*
X102270000Y-82620000D02*
X103070800Y-82620000D01*
X102270000Y-83219400D02*
X102270000Y-82620000D01*
X88270700Y-82620000D02*
X88270700Y-83219400D01*
X255471000Y-88869400D02*
X254670000Y-88869400D01*
X83220000Y-82620000D02*
X84020800Y-82620000D01*
X69220700Y-83219400D02*
X83220000Y-83219400D01*
X64170000Y-69220000D02*
X50170700Y-69220000D01*
X68421300Y-82620000D02*
X69220700Y-82620000D01*
X64170000Y-69819400D02*
X64170000Y-69220000D01*
X31120650Y-82620000D02*
X31120650Y-83219400D01*
X49371400Y-69819400D02*
X49371400Y-82620000D01*
X45920800Y-69819400D02*
X45120200Y-69819400D01*
X83220000Y-83219400D02*
X83220000Y-82620000D01*
X64170000Y-83219400D02*
X64170000Y-82620000D01*
X254670000Y-88869400D02*
X254670000Y-88269900D01*
X68421300Y-69819400D02*
X68421300Y-82620000D01*
X69220700Y-69819400D02*
X68421300Y-69819400D01*
X64170000Y-82620000D02*
X64970800Y-82620000D01*
X50170700Y-69819400D02*
X49371400Y-69819400D01*
X50170700Y-69220000D02*
X50170700Y-69819400D01*
X45920800Y-82620000D02*
X45920800Y-69819400D01*
X240671000Y-88869400D02*
X239871000Y-88869400D01*
X87471300Y-82620000D02*
X88270700Y-82620000D01*
X69220700Y-82620000D02*
X69220700Y-83219400D01*
X254670000Y-102269430D02*
X254670000Y-101669980D01*
X45120200Y-82620000D02*
X45920800Y-82620000D01*
X87471300Y-69819400D02*
X87471300Y-82620000D01*
X88270700Y-69819400D02*
X87471300Y-69819400D01*
X88270700Y-69220000D02*
X88270700Y-69819400D01*
X83220000Y-69220000D02*
X69220700Y-69220000D01*
X255471000Y-101669980D02*
X255471000Y-88869400D01*
X240671000Y-88269900D02*
X240671000Y-88869400D01*
X64970800Y-82620000D02*
X64970800Y-69819400D01*
X50170700Y-83219400D02*
X64170000Y-83219400D01*
X45120200Y-83219400D02*
X45120200Y-82620000D01*
X239871000Y-88869400D02*
X239871000Y-101669980D01*
X83220000Y-69819400D02*
X83220000Y-69220000D01*
X69220700Y-69220000D02*
X69220700Y-69819400D01*
X64970800Y-69819400D02*
X64170000Y-69819400D01*
X240671000Y-101669980D02*
X240671000Y-102269430D01*
X239871000Y-101669980D02*
X240671000Y-101669980D01*
X50170700Y-82620000D02*
X50170700Y-83219400D01*
X31120650Y-69819400D02*
X30321390Y-69819400D01*
X254670000Y-88269900D02*
X240671000Y-88269900D01*
X31120650Y-69220000D02*
X31120650Y-69819400D01*
X236421000Y-88869400D02*
X235620000Y-88869400D01*
X49371400Y-82620000D02*
X50170700Y-82620000D01*
X45120200Y-69819400D02*
X45120200Y-69220000D01*
X103070800Y-101669980D02*
X103070800Y-88869400D01*
X102270000Y-102269430D02*
X102270000Y-101669980D01*
X88270700Y-102269430D02*
X102270000Y-102269430D01*
X64970800Y-88869400D02*
X64170000Y-88869400D01*
X84020800Y-101669980D02*
X84020800Y-88869400D01*
X87471300Y-101669980D02*
X88270700Y-101669980D01*
X64970800Y-101669980D02*
X64970800Y-88869400D01*
X83220000Y-88269900D02*
X69220700Y-88269900D01*
X102270000Y-88269900D02*
X88270700Y-88269900D01*
X69220700Y-101669980D02*
X69220700Y-102269430D01*
X68421300Y-88869400D02*
X68421300Y-101669980D01*
X102270000Y-88869400D02*
X102270000Y-88269900D01*
X88270700Y-101669980D02*
X88270700Y-102269430D01*
X68421300Y-101669980D02*
X69220700Y-101669980D01*
X103070800Y-88869400D02*
X102270000Y-88869400D01*
X83220000Y-88869400D02*
X83220000Y-88269900D01*
X69220700Y-88869400D02*
X68421300Y-88869400D01*
X64170000Y-88269900D02*
X50170700Y-88269900D01*
X102270000Y-101669980D02*
X103070800Y-101669980D01*
X88270700Y-88269900D02*
X88270700Y-88869400D01*
X88270700Y-88869400D02*
X87471300Y-88869400D01*
X87471300Y-88869400D02*
X87471300Y-101669980D01*
X84020800Y-88869400D02*
X83220000Y-88869400D01*
X83220000Y-102269430D02*
X83220000Y-101669980D01*
X69220700Y-102269430D02*
X83220000Y-102269430D01*
X83220000Y-101669980D02*
X84020800Y-101669980D01*
X64170000Y-88869400D02*
X64170000Y-88269900D01*
X69220700Y-88269900D02*
X69220700Y-88869400D01*
X45120200Y-88869400D02*
X45120200Y-88269900D01*
X31120650Y-88269900D02*
X31120650Y-88869400D01*
X45120200Y-101669980D02*
X45920800Y-101669980D01*
X45120200Y-102269430D02*
X45120200Y-101669980D01*
X153139148Y-87309759D02*
X153139148Y-88279929D01*
X156439148Y-87309759D02*
X153139148Y-87309759D01*
X50170700Y-88869400D02*
X49371400Y-88869400D01*
X50170700Y-88269900D02*
X50170700Y-88869400D01*
X45120200Y-88269900D02*
X31120650Y-88269900D01*
X31120650Y-102269430D02*
X45120200Y-102269430D01*
X156439148Y-88279929D02*
X156439148Y-87309759D01*
X30321390Y-101669980D02*
X31120650Y-101669980D01*
X31120650Y-88869400D02*
X30321390Y-88869400D01*
X132639148Y-87309759D02*
X129339148Y-87309759D01*
X45920800Y-88869400D02*
X45120200Y-88869400D01*
X31120650Y-101669980D02*
X31120650Y-102269430D01*
X153139148Y-88279929D02*
X132639148Y-88279929D01*
X64170000Y-101669980D02*
X64970800Y-101669980D01*
X30321390Y-88869400D02*
X30321390Y-101669980D01*
X132639148Y-88279929D02*
X132639148Y-87309759D01*
X129339148Y-87309759D02*
X129339148Y-88279929D01*
X64170000Y-102269430D02*
X64170000Y-101669980D01*
X50170700Y-102269430D02*
X64170000Y-102269430D01*
X45920800Y-101669980D02*
X45920800Y-88869400D01*
X50170700Y-101669980D02*
X50170700Y-102269430D01*
X49371400Y-101669980D02*
X50170700Y-101669980D01*
X49371400Y-88869400D02*
X49371400Y-101669980D01*
X240671000Y-82620000D02*
X240671000Y-83219400D01*
X217371000Y-82620000D02*
X217371000Y-69819400D01*
X221621000Y-69220000D02*
X221621000Y-69819400D01*
X216570000Y-69819400D02*
X216570000Y-69220000D01*
X221621000Y-82620000D02*
X221621000Y-83219400D01*
X216570000Y-83219400D02*
X216570000Y-82620000D01*
X216570000Y-82620000D02*
X217371000Y-82620000D01*
X255471000Y-82620000D02*
X255471000Y-69819400D01*
X64170000Y-50769400D02*
X64170000Y-50170000D01*
X50170700Y-50769400D02*
X49371400Y-50769400D01*
X31120650Y-50170000D02*
X31120650Y-50769400D01*
X240671000Y-83219400D02*
X254670000Y-83219400D01*
X254670000Y-82620000D02*
X255471000Y-82620000D01*
X64970800Y-50769400D02*
X64170000Y-50769400D01*
X50170700Y-63570000D02*
X50170700Y-64169300D01*
X236421000Y-82620000D02*
X236421000Y-69819400D01*
X240671000Y-69220000D02*
X240671000Y-69819400D01*
X45920800Y-50769400D02*
X45120200Y-50769400D01*
X45120200Y-63570000D02*
X45920800Y-63570000D01*
X254670000Y-69220000D02*
X240671000Y-69220000D01*
X254670000Y-83219400D02*
X254670000Y-82620000D01*
X45120200Y-50769400D02*
X45120200Y-50170000D01*
X69220700Y-50769400D02*
X68421300Y-50769400D01*
X69220700Y-50170000D02*
X69220700Y-50769400D01*
X239871000Y-82620000D02*
X240671000Y-82620000D01*
X64170000Y-50170000D02*
X50170700Y-50170000D01*
X30321390Y-50769400D02*
X30321390Y-63570000D01*
X45120200Y-50170000D02*
X31120650Y-50170000D01*
X64970800Y-63570000D02*
X64970800Y-50769400D01*
X64170000Y-63570000D02*
X64970800Y-63570000D01*
X50170700Y-64169300D02*
X64170000Y-64169300D01*
X49371400Y-50769400D02*
X49371400Y-63570000D01*
X239871000Y-69819400D02*
X239871000Y-82620000D01*
X240671000Y-69819400D02*
X239871000Y-69819400D01*
X64170000Y-64169300D02*
X64170000Y-63570000D01*
X49371400Y-63570000D02*
X50170700Y-63570000D01*
X50170700Y-50170000D02*
X50170700Y-50769400D01*
X31120650Y-64169300D02*
X45120200Y-64169300D01*
X254670000Y-69819400D02*
X254670000Y-69220000D01*
X45920800Y-63570000D02*
X45920800Y-50769400D01*
X235620000Y-69819400D02*
X235620000Y-69220000D01*
X221621000Y-83219400D02*
X235620000Y-83219400D01*
X45120200Y-64169300D02*
X45120200Y-63570000D01*
X31120650Y-63570000D02*
X31120650Y-64169300D01*
X30321390Y-63570000D02*
X31120650Y-63570000D01*
X255471000Y-69819400D02*
X254670000Y-69819400D01*
X235620000Y-69220000D02*
X221621000Y-69220000D01*
X236421000Y-69819400D02*
X235620000Y-69819400D01*
X216570000Y-69220000D02*
X202571000Y-69220000D01*
X235620000Y-82620000D02*
X236421000Y-82620000D01*
X235620000Y-83219400D02*
X235620000Y-82620000D01*
X221621000Y-69819400D02*
X220821000Y-69819400D01*
X202571000Y-83219400D02*
X216570000Y-83219400D01*
X217371000Y-69819400D02*
X216570000Y-69819400D01*
X220821000Y-69819400D02*
X220821000Y-82620000D01*
X220821000Y-82620000D02*
X221621000Y-82620000D01*
X31120650Y-50769400D02*
X30321390Y-50769400D01*
X235620000Y-63570000D02*
X236421000Y-63570000D01*
X254670000Y-64169300D02*
X254670000Y-63570000D01*
X197520000Y-50170000D02*
X183521000Y-50170000D01*
X197520000Y-63570000D02*
X198321000Y-63570000D01*
X182721000Y-63570000D02*
X183521000Y-63570000D01*
X240671000Y-63570000D02*
X240671000Y-64169300D01*
X220821000Y-50769400D02*
X220821000Y-63570000D01*
X217371000Y-50769400D02*
X216570000Y-50769400D01*
X202571000Y-64169300D02*
X216570000Y-64169300D01*
X221621000Y-63570000D02*
X221621000Y-64169300D01*
X217371000Y-63570000D02*
X217371000Y-50769400D01*
X178470000Y-50170000D02*
X164471000Y-50170000D01*
X198321000Y-50769400D02*
X197520000Y-50769400D01*
X183521000Y-50769400D02*
X182721000Y-50769400D01*
X202571000Y-63570000D02*
X202571000Y-64169300D01*
X178470000Y-64169300D02*
X178470000Y-63570000D01*
X45920800Y-31719400D02*
X45120200Y-31719400D01*
X30321390Y-31719400D02*
X30321390Y-44520000D01*
X45920800Y-44520000D02*
X45920800Y-31719400D01*
X45120200Y-44520000D02*
X45920800Y-44520000D01*
X45120200Y-45119300D02*
X45120200Y-44520000D01*
X31120650Y-31120000D02*
X31120650Y-31719400D01*
X236421000Y-50769400D02*
X235620000Y-50769400D01*
X178470000Y-50769400D02*
X178470000Y-50170000D01*
X31120650Y-45119300D02*
X45120200Y-45119300D01*
X254670000Y-50170000D02*
X240671000Y-50170000D01*
X31120650Y-44520000D02*
X31120650Y-45119300D01*
X30321390Y-44520000D02*
X31120650Y-44520000D01*
X235620000Y-50170000D02*
X221621000Y-50170000D01*
X31120650Y-31719400D02*
X30321390Y-31719400D01*
X254670000Y-50769400D02*
X254670000Y-50170000D01*
X255471000Y-50769400D02*
X254670000Y-50769400D01*
X179271000Y-50769400D02*
X178470000Y-50769400D01*
X240671000Y-64169300D02*
X254670000Y-64169300D01*
X239871000Y-63570000D02*
X240671000Y-63570000D01*
X197520000Y-50769400D02*
X197520000Y-50170000D01*
X239871000Y-50769400D02*
X239871000Y-63570000D01*
X216570000Y-50170000D02*
X202571000Y-50170000D01*
X197520000Y-64169300D02*
X197520000Y-63570000D01*
X216570000Y-50769400D02*
X216570000Y-50170000D01*
X202571000Y-50769400D02*
X201771000Y-50769400D01*
X183521000Y-63570000D02*
X183521000Y-64169300D01*
X178470000Y-63570000D02*
X179271000Y-63570000D01*
X202571000Y-50170000D02*
X202571000Y-50769400D01*
X221621000Y-64169300D02*
X235620000Y-64169300D01*
X183521000Y-64169300D02*
X197520000Y-64169300D01*
X182721000Y-50769400D02*
X182721000Y-63570000D01*
X255471000Y-63570000D02*
X255471000Y-50769400D01*
X240671000Y-50170000D02*
X240671000Y-50769400D01*
X236421000Y-63570000D02*
X236421000Y-50769400D01*
X235620000Y-64169300D02*
X235620000Y-63570000D01*
X221621000Y-50170000D02*
X221621000Y-50769400D01*
X198321000Y-63570000D02*
X198321000Y-50769400D01*
X216570000Y-63570000D02*
X217371000Y-63570000D01*
X201771000Y-63570000D02*
X202571000Y-63570000D01*
X240671000Y-50769400D02*
X239871000Y-50769400D01*
X220821000Y-63570000D02*
X221621000Y-63570000D01*
X235620000Y-50769400D02*
X235620000Y-50170000D01*
X221621000Y-50769400D02*
X220821000Y-50769400D01*
X216570000Y-64169300D02*
X216570000Y-63570000D01*
X201771000Y-50769400D02*
X201771000Y-63570000D01*
X183521000Y-50170000D02*
X183521000Y-50769400D01*
X179271000Y-63570000D02*
X179271000Y-50769400D01*
X254670000Y-63570000D02*
X255471000Y-63570000D01*
X103070800Y-63570000D02*
X103070800Y-50769400D01*
X83220000Y-63570000D02*
X84020800Y-63570000D01*
X87471300Y-63570000D02*
X88270700Y-63570000D01*
X87471300Y-50769400D02*
X87471300Y-63570000D01*
X84020800Y-63570000D02*
X84020800Y-50769400D01*
X159420000Y-50769400D02*
X159420000Y-50170000D01*
X141169000Y-63570000D02*
X141169000Y-50769400D01*
X106521300Y-63570000D02*
X107320700Y-63570000D01*
X121320000Y-64169300D02*
X121320000Y-63570000D01*
X68421300Y-50769400D02*
X68421300Y-63570000D01*
X163671000Y-63570000D02*
X164471000Y-63570000D01*
X164471000Y-64169300D02*
X178470000Y-64169300D01*
X163671000Y-50769400D02*
X163671000Y-63570000D01*
X107320700Y-64169300D02*
X121320000Y-64169300D01*
X159420000Y-63570000D02*
X160221000Y-63570000D01*
X140370000Y-50769400D02*
X140370000Y-50170000D01*
X140370000Y-63570000D02*
X141169000Y-63570000D01*
X126369300Y-63570000D02*
X126369300Y-64169300D01*
X125571300Y-63570000D02*
X126369300Y-63570000D01*
X107320700Y-50170000D02*
X107320700Y-50769400D01*
X107320700Y-63570000D02*
X107320700Y-64169300D01*
X88270700Y-50769400D02*
X87471300Y-50769400D01*
X83220000Y-64169300D02*
X83220000Y-63570000D01*
X125571300Y-50769400D02*
X125571300Y-63570000D01*
X88270700Y-50170000D02*
X88270700Y-50769400D01*
X69220700Y-64169300D02*
X83220000Y-64169300D01*
X164471000Y-63570000D02*
X164471000Y-64169300D01*
X164471000Y-50769400D02*
X163671000Y-50769400D01*
X160221000Y-50769400D02*
X159420000Y-50769400D01*
X159420000Y-64169300D02*
X159420000Y-63570000D01*
X107320700Y-50769400D02*
X106521300Y-50769400D01*
X145419000Y-64169300D02*
X159420000Y-64169300D01*
X145419000Y-63570000D02*
X145419000Y-64169300D01*
X145419000Y-50170000D02*
X145419000Y-50769400D01*
X121320000Y-50170000D02*
X107320700Y-50170000D01*
X122119400Y-50769400D02*
X121320000Y-50769400D01*
X106521300Y-50769400D02*
X106521300Y-63570000D01*
X102270000Y-50170000D02*
X88270700Y-50170000D01*
X103070800Y-50769400D02*
X102270000Y-50769400D01*
X102270000Y-64169300D02*
X102270000Y-63570000D01*
X83220000Y-50769400D02*
X83220000Y-50170000D01*
X84020800Y-50769400D02*
X83220000Y-50769400D01*
X140370000Y-50170000D02*
X126369300Y-50170000D01*
X88270700Y-63570000D02*
X88270700Y-64169300D01*
X140370000Y-64169300D02*
X140370000Y-63570000D01*
X164471000Y-50170000D02*
X164471000Y-50769400D01*
X102270000Y-63570000D02*
X103070800Y-63570000D01*
X144620000Y-50769400D02*
X144620000Y-63570000D01*
X145419000Y-50769400D02*
X144620000Y-50769400D01*
X126369300Y-50170000D02*
X126369300Y-50769400D01*
X121320000Y-63570000D02*
X122119400Y-63570000D01*
X68421300Y-63570000D02*
X69220700Y-63570000D01*
X102270000Y-50769400D02*
X102270000Y-50170000D01*
X141169000Y-50769400D02*
X140370000Y-50769400D01*
X122119400Y-63570000D02*
X122119400Y-50769400D01*
X88270700Y-64169300D02*
X102270000Y-64169300D01*
X126369300Y-64169300D02*
X140370000Y-64169300D01*
X160221000Y-63570000D02*
X160221000Y-50769400D01*
X144620000Y-63570000D02*
X145419000Y-63570000D01*
X126369300Y-50769400D02*
X125571300Y-50769400D01*
X121320000Y-50769400D02*
X121320000Y-50170000D01*
X83220000Y-50170000D02*
X69220700Y-50170000D01*
X69220700Y-63570000D02*
X69220700Y-64169300D01*
X159420000Y-50170000D02*
X145419000Y-50170000D01*
D11*
X27384375Y-102393750D02*
X27384375Y-30956250D01*
X258365625Y-30956250D02*
X258365625Y-102393750D01*
X258365625Y-30956250D02*
G75*
G03X255984375Y-28575000I-2381250J0D01*
G01*
X255984375Y-104775000D02*
G75*
G03X258365625Y-102393750I0J2381250D01*
G01*
X27384375Y-102393750D02*
G75*
G03X29765625Y-104775000I2381250J0D01*
G01*
X29765625Y-28575000D02*
G75*
G03X27384375Y-30956250I0J-2381250D01*
G01*
X255984375Y-104775000D02*
X29765625Y-104775000D01*
X29765625Y-28575000D02*
X255984375Y-28575000D01*
M02*
