G04 #@! TF.GenerationSoftware,KiCad,Pcbnew,(5.0.0)*
G04 #@! TF.CreationDate,2018-11-10T23:00:33-06:00*
G04 #@! TF.ProjectId,Contra,436F6E7472612E6B696361645F706362,rev?*
G04 #@! TF.SameCoordinates,Original*
G04 #@! TF.FileFunction,Soldermask,Top*
G04 #@! TF.FilePolarity,Negative*
%FSLAX46Y46*%
G04 Gerber Fmt 4.6, Leading zero omitted, Abs format (unit mm)*
G04 Created by KiCad (PCBNEW (5.0.0)) date 11/10/18 23:00:33*
%MOMM*%
%LPD*%
G01*
G04 APERTURE LIST*
%ADD10C,4.387800*%
%ADD11C,2.150000*%
%ADD12C,2.432000*%
%ADD13C,3.448000*%
%ADD14C,2.600000*%
%ADD15R,2.100000X2.100000*%
%ADD16O,2.100000X2.100000*%
%ADD17C,2.000000*%
%ADD18R,2.000000X2.000000*%
%ADD19R,1.600000X1.600000*%
%ADD20C,1.400000*%
G04 APERTURE END LIST*
D10*
G04 #@! TO.C,MX26*
X57150000Y-76200000D03*
D11*
X52070000Y-76200000D03*
X62230000Y-76200000D03*
G04 #@! TD*
D10*
G04 #@! TO.C,MX48*
X247650000Y-95250000D03*
D11*
X242570000Y-95250000D03*
X252730000Y-95250000D03*
G04 #@! TD*
D12*
G04 #@! TO.C,U1*
X83820000Y-32543750D03*
X83820000Y-35083750D03*
X83820000Y-37623750D03*
X83820000Y-40163750D03*
X83820000Y-42703750D03*
X83820000Y-45243750D03*
X83820000Y-47783750D03*
X83820000Y-50323750D03*
X83820000Y-52863750D03*
X83820000Y-55403750D03*
X83820000Y-57943750D03*
X83820000Y-60483750D03*
X68580000Y-32543750D03*
X68580000Y-35083750D03*
X68580000Y-37623750D03*
X68580000Y-40163750D03*
X68580000Y-42703750D03*
X68580000Y-45243750D03*
X68580000Y-47783750D03*
X68580000Y-50323750D03*
X68580000Y-52863750D03*
X68580000Y-55403750D03*
X68580000Y-57943750D03*
X68580000Y-60483750D03*
G04 #@! TD*
D10*
G04 #@! TO.C,MX49*
X142875000Y-95250000D03*
D11*
X137795000Y-95250000D03*
X147955000Y-95250000D03*
D13*
X130937000Y-102235000D03*
X154813000Y-102235000D03*
D10*
X130937000Y-86995000D03*
X154813000Y-86995000D03*
G04 #@! TD*
G04 #@! TO.C,MX47*
X228600000Y-95250000D03*
D11*
X223520000Y-95250000D03*
X233680000Y-95250000D03*
G04 #@! TD*
D10*
G04 #@! TO.C,MX46*
X209550000Y-95250000D03*
D11*
X204470000Y-95250000D03*
X214630000Y-95250000D03*
G04 #@! TD*
D10*
G04 #@! TO.C,MX45*
X190500000Y-95250000D03*
D11*
X185420000Y-95250000D03*
X195580000Y-95250000D03*
G04 #@! TD*
D10*
G04 #@! TO.C,MX44*
X171450000Y-95250000D03*
D11*
X166370000Y-95250000D03*
X176530000Y-95250000D03*
G04 #@! TD*
D10*
G04 #@! TO.C,MX43*
X152400000Y-95250000D03*
D11*
X147320000Y-95250000D03*
X157480000Y-95250000D03*
G04 #@! TD*
D10*
G04 #@! TO.C,MX42*
X133350000Y-95250000D03*
D11*
X128270000Y-95250000D03*
X138430000Y-95250000D03*
G04 #@! TD*
D10*
G04 #@! TO.C,MX41*
X114300000Y-95250000D03*
D11*
X109220000Y-95250000D03*
X119380000Y-95250000D03*
G04 #@! TD*
D10*
G04 #@! TO.C,MX40*
X95250000Y-95250000D03*
D11*
X90170000Y-95250000D03*
X100330000Y-95250000D03*
G04 #@! TD*
D10*
G04 #@! TO.C,MX39*
X76200000Y-95250000D03*
D11*
X71120000Y-95250000D03*
X81280000Y-95250000D03*
G04 #@! TD*
D10*
G04 #@! TO.C,MX38*
X57150000Y-95250000D03*
D11*
X52070000Y-95250000D03*
X62230000Y-95250000D03*
G04 #@! TD*
D10*
G04 #@! TO.C,MX37*
X38100000Y-95250000D03*
D11*
X33020000Y-95250000D03*
X43180000Y-95250000D03*
G04 #@! TD*
D10*
G04 #@! TO.C,MX36*
X247650000Y-76200000D03*
D11*
X242570000Y-76200000D03*
X252730000Y-76200000D03*
G04 #@! TD*
D10*
G04 #@! TO.C,MX35*
X228600000Y-76200000D03*
D11*
X223520000Y-76200000D03*
X233680000Y-76200000D03*
G04 #@! TD*
D10*
G04 #@! TO.C,MX34*
X209550000Y-76200000D03*
D11*
X204470000Y-76200000D03*
X214630000Y-76200000D03*
G04 #@! TD*
D10*
G04 #@! TO.C,MX33*
X190500000Y-76200000D03*
D11*
X185420000Y-76200000D03*
X195580000Y-76200000D03*
G04 #@! TD*
D10*
G04 #@! TO.C,MX32*
X171450000Y-76200000D03*
D11*
X166370000Y-76200000D03*
X176530000Y-76200000D03*
G04 #@! TD*
D10*
G04 #@! TO.C,MX31*
X152400000Y-76200000D03*
D11*
X147320000Y-76200000D03*
X157480000Y-76200000D03*
G04 #@! TD*
D10*
G04 #@! TO.C,MX30*
X133350000Y-76200000D03*
D11*
X128270000Y-76200000D03*
X138430000Y-76200000D03*
G04 #@! TD*
D10*
G04 #@! TO.C,MX29*
X114300000Y-76200000D03*
D11*
X109220000Y-76200000D03*
X119380000Y-76200000D03*
G04 #@! TD*
D10*
G04 #@! TO.C,MX28*
X95250000Y-76200000D03*
D11*
X90170000Y-76200000D03*
X100330000Y-76200000D03*
G04 #@! TD*
D10*
G04 #@! TO.C,MX27*
X76200000Y-76200000D03*
D11*
X71120000Y-76200000D03*
X81280000Y-76200000D03*
G04 #@! TD*
D10*
G04 #@! TO.C,MX25*
X38100000Y-76200000D03*
D11*
X33020000Y-76200000D03*
X43180000Y-76200000D03*
G04 #@! TD*
D10*
G04 #@! TO.C,MX24*
X247650000Y-57150000D03*
D11*
X242570000Y-57150000D03*
X252730000Y-57150000D03*
G04 #@! TD*
D10*
G04 #@! TO.C,MX23*
X228600000Y-57150000D03*
D11*
X223520000Y-57150000D03*
X233680000Y-57150000D03*
G04 #@! TD*
D10*
G04 #@! TO.C,MX22*
X209550000Y-57150000D03*
D11*
X204470000Y-57150000D03*
X214630000Y-57150000D03*
G04 #@! TD*
D10*
G04 #@! TO.C,MX21*
X190500000Y-57150000D03*
D11*
X185420000Y-57150000D03*
X195580000Y-57150000D03*
G04 #@! TD*
D10*
G04 #@! TO.C,MX20*
X171450000Y-57150000D03*
D11*
X166370000Y-57150000D03*
X176530000Y-57150000D03*
G04 #@! TD*
D10*
G04 #@! TO.C,MX19*
X152400000Y-57150000D03*
D11*
X147320000Y-57150000D03*
X157480000Y-57150000D03*
G04 #@! TD*
D10*
G04 #@! TO.C,MX18*
X133350000Y-57150000D03*
D11*
X128270000Y-57150000D03*
X138430000Y-57150000D03*
G04 #@! TD*
D10*
G04 #@! TO.C,MX17*
X114300000Y-57150000D03*
D11*
X109220000Y-57150000D03*
X119380000Y-57150000D03*
G04 #@! TD*
D10*
G04 #@! TO.C,MX16*
X95250000Y-57150000D03*
D11*
X90170000Y-57150000D03*
X100330000Y-57150000D03*
G04 #@! TD*
D10*
G04 #@! TO.C,MX15*
X76200000Y-57150000D03*
D11*
X71120000Y-57150000D03*
X81280000Y-57150000D03*
G04 #@! TD*
D10*
G04 #@! TO.C,MX14*
X57150000Y-57150000D03*
D11*
X52070000Y-57150000D03*
X62230000Y-57150000D03*
G04 #@! TD*
D10*
G04 #@! TO.C,MX13*
X38100000Y-57150000D03*
D11*
X33020000Y-57150000D03*
X43180000Y-57150000D03*
G04 #@! TD*
D10*
G04 #@! TO.C,MX12*
X247650000Y-38100000D03*
D11*
X242570000Y-38100000D03*
X252730000Y-38100000D03*
G04 #@! TD*
D10*
G04 #@! TO.C,MX11*
X228600000Y-38100000D03*
D11*
X223520000Y-38100000D03*
X233680000Y-38100000D03*
G04 #@! TD*
D10*
G04 #@! TO.C,MX10*
X209550000Y-38100000D03*
D11*
X204470000Y-38100000D03*
X214630000Y-38100000D03*
G04 #@! TD*
D10*
G04 #@! TO.C,MX9*
X190500000Y-38100000D03*
D11*
X185420000Y-38100000D03*
X195580000Y-38100000D03*
G04 #@! TD*
D10*
G04 #@! TO.C,MX8*
X171450000Y-38100000D03*
D11*
X166370000Y-38100000D03*
X176530000Y-38100000D03*
G04 #@! TD*
D10*
G04 #@! TO.C,MX7*
X152400000Y-38100000D03*
D11*
X147320000Y-38100000D03*
X157480000Y-38100000D03*
G04 #@! TD*
D10*
G04 #@! TO.C,MX6*
X133350000Y-38100000D03*
D11*
X128270000Y-38100000D03*
X138430000Y-38100000D03*
G04 #@! TD*
D10*
G04 #@! TO.C,MX5*
X114300000Y-38100000D03*
D11*
X109220000Y-38100000D03*
X119380000Y-38100000D03*
G04 #@! TD*
D10*
G04 #@! TO.C,MX4*
X95250000Y-38100000D03*
D11*
X90170000Y-38100000D03*
X100330000Y-38100000D03*
G04 #@! TD*
D10*
G04 #@! TO.C,MX3*
X76200000Y-38100000D03*
D11*
X71120000Y-38100000D03*
X81280000Y-38100000D03*
G04 #@! TD*
D10*
G04 #@! TO.C,MX2*
X57150000Y-38100000D03*
D11*
X52070000Y-38100000D03*
X62230000Y-38100000D03*
G04 #@! TD*
D10*
G04 #@! TO.C,MX1*
X38100000Y-38100000D03*
D11*
X33020000Y-38100000D03*
X43180000Y-38100000D03*
G04 #@! TD*
D14*
G04 #@! TO.C,J1*
X47625000Y-47625000D03*
G04 #@! TD*
G04 #@! TO.C,J2*
X104775000Y-47625000D03*
G04 #@! TD*
G04 #@! TO.C,J3*
X47625000Y-85725000D03*
G04 #@! TD*
G04 #@! TO.C,J4*
X104775000Y-85725000D03*
G04 #@! TD*
G04 #@! TO.C,J5*
X180975000Y-47625000D03*
G04 #@! TD*
G04 #@! TO.C,J6*
X180975000Y-85725000D03*
G04 #@! TD*
G04 #@! TO.C,J7*
X238125000Y-47625000D03*
G04 #@! TD*
G04 #@! TO.C,J8*
X238125000Y-85725000D03*
G04 #@! TD*
D15*
G04 #@! TO.C,J9*
X43815000Y-66675000D03*
D16*
X46355000Y-66675000D03*
X48895000Y-66675000D03*
X51435000Y-66675000D03*
G04 #@! TD*
D17*
G04 #@! TO.C,D1*
X47625000Y-34835000D03*
D18*
X47625000Y-42635000D03*
D19*
X47625000Y-40310000D03*
X47625000Y-37160000D03*
G04 #@! TD*
G04 #@! TO.C,D2*
X59226250Y-47625000D03*
X62376250Y-47625000D03*
D18*
X64701250Y-47625000D03*
D17*
X56901250Y-47625000D03*
G04 #@! TD*
G04 #@! TO.C,D3*
X72300000Y-66675000D03*
D18*
X80100000Y-66675000D03*
D19*
X77775000Y-66675000D03*
X74625000Y-66675000D03*
G04 #@! TD*
G04 #@! TO.C,D4*
X104775000Y-35890000D03*
X104775000Y-39040000D03*
D18*
X104775000Y-41365000D03*
D17*
X104775000Y-33565000D03*
G04 #@! TD*
G04 #@! TO.C,D5*
X123825000Y-33565000D03*
D18*
X123825000Y-41365000D03*
D19*
X123825000Y-39040000D03*
X123825000Y-35890000D03*
G04 #@! TD*
G04 #@! TO.C,D6*
X142875000Y-35890000D03*
X142875000Y-39040000D03*
D18*
X142875000Y-41365000D03*
D17*
X142875000Y-33565000D03*
G04 #@! TD*
G04 #@! TO.C,D7*
X161925000Y-33565000D03*
D18*
X161925000Y-41365000D03*
D19*
X161925000Y-39040000D03*
X161925000Y-35890000D03*
G04 #@! TD*
G04 #@! TO.C,D8*
X180975000Y-35890000D03*
X180975000Y-39040000D03*
D18*
X180975000Y-41365000D03*
D17*
X180975000Y-33565000D03*
G04 #@! TD*
G04 #@! TO.C,D9*
X200025000Y-33565000D03*
D18*
X200025000Y-41365000D03*
D19*
X200025000Y-39040000D03*
X200025000Y-35890000D03*
G04 #@! TD*
G04 #@! TO.C,D10*
X219075000Y-35890000D03*
X219075000Y-39040000D03*
D18*
X219075000Y-41365000D03*
D17*
X219075000Y-33565000D03*
G04 #@! TD*
G04 #@! TO.C,D11*
X238125000Y-33565000D03*
D18*
X238125000Y-41365000D03*
D19*
X238125000Y-39040000D03*
X238125000Y-35890000D03*
G04 #@! TD*
G04 #@! TO.C,D12*
X246075000Y-47625000D03*
X249225000Y-47625000D03*
D18*
X251550000Y-47625000D03*
D17*
X243750000Y-47625000D03*
G04 #@! TD*
G04 #@! TO.C,D13*
X47625000Y-53885000D03*
D18*
X47625000Y-61685000D03*
D19*
X47625000Y-59360000D03*
X47625000Y-56210000D03*
G04 #@! TD*
G04 #@! TO.C,D14*
X59226250Y-66675000D03*
X62376250Y-66675000D03*
D18*
X64701250Y-66675000D03*
D17*
X56901250Y-66675000D03*
G04 #@! TD*
D19*
G04 #@! TO.C,D15*
X93040000Y-66675000D03*
X96190000Y-66675000D03*
D18*
X98515000Y-66675000D03*
D17*
X90715000Y-66675000D03*
G04 #@! TD*
G04 #@! TO.C,D16*
X104775000Y-52525000D03*
D18*
X104775000Y-60325000D03*
D19*
X104775000Y-58000000D03*
X104775000Y-54850000D03*
G04 #@! TD*
D17*
G04 #@! TO.C,D17*
X123825000Y-52525000D03*
D18*
X123825000Y-60325000D03*
D19*
X123825000Y-58000000D03*
X123825000Y-54850000D03*
G04 #@! TD*
D17*
G04 #@! TO.C,D18*
X142875000Y-52525000D03*
D18*
X142875000Y-60325000D03*
D19*
X142875000Y-58000000D03*
X142875000Y-54850000D03*
G04 #@! TD*
D17*
G04 #@! TO.C,D19*
X161925000Y-52525000D03*
D18*
X161925000Y-60325000D03*
D19*
X161925000Y-58000000D03*
X161925000Y-54850000D03*
G04 #@! TD*
D17*
G04 #@! TO.C,D20*
X180975000Y-52615000D03*
D18*
X180975000Y-60415000D03*
D19*
X180975000Y-58090000D03*
X180975000Y-54940000D03*
G04 #@! TD*
D17*
G04 #@! TO.C,D21*
X200025000Y-52615000D03*
D18*
X200025000Y-60415000D03*
D19*
X200025000Y-58090000D03*
X200025000Y-54940000D03*
G04 #@! TD*
D17*
G04 #@! TO.C,D22*
X219075000Y-52615000D03*
D18*
X219075000Y-60415000D03*
D19*
X219075000Y-58090000D03*
X219075000Y-54940000D03*
G04 #@! TD*
D17*
G04 #@! TO.C,D23*
X238125000Y-52615000D03*
D18*
X238125000Y-60415000D03*
D19*
X238125000Y-58090000D03*
X238125000Y-54940000D03*
G04 #@! TD*
D17*
G04 #@! TO.C,D24*
X243750000Y-66675000D03*
D18*
X251550000Y-66675000D03*
D19*
X249225000Y-66675000D03*
X246075000Y-66675000D03*
G04 #@! TD*
D17*
G04 #@! TO.C,D25*
X47625000Y-71665000D03*
D18*
X47625000Y-79465000D03*
D19*
X47625000Y-77140000D03*
X47625000Y-73990000D03*
G04 #@! TD*
D17*
G04 #@! TO.C,D26*
X66675000Y-71665000D03*
D18*
X66675000Y-79465000D03*
D19*
X66675000Y-77140000D03*
X66675000Y-73990000D03*
G04 #@! TD*
D17*
G04 #@! TO.C,D27*
X85725000Y-71665000D03*
D18*
X85725000Y-79465000D03*
D19*
X85725000Y-77140000D03*
X85725000Y-73990000D03*
G04 #@! TD*
D17*
G04 #@! TO.C,D28*
X104775000Y-71665000D03*
D18*
X104775000Y-79465000D03*
D19*
X104775000Y-77140000D03*
X104775000Y-73990000D03*
G04 #@! TD*
D17*
G04 #@! TO.C,D29*
X123825000Y-71665000D03*
D18*
X123825000Y-79465000D03*
D19*
X123825000Y-77140000D03*
X123825000Y-73990000D03*
G04 #@! TD*
G04 #@! TO.C,D30*
X142875000Y-73990000D03*
X142875000Y-77140000D03*
D18*
X142875000Y-79465000D03*
D17*
X142875000Y-71665000D03*
G04 #@! TD*
D19*
G04 #@! TO.C,D31*
X161925000Y-73990000D03*
X161925000Y-77140000D03*
D18*
X161925000Y-79465000D03*
D17*
X161925000Y-71665000D03*
G04 #@! TD*
D19*
G04 #@! TO.C,D32*
X180975000Y-73990000D03*
X180975000Y-77140000D03*
D18*
X180975000Y-79465000D03*
D17*
X180975000Y-71665000D03*
G04 #@! TD*
D19*
G04 #@! TO.C,D33*
X200025000Y-74535000D03*
X200025000Y-77685000D03*
D18*
X200025000Y-80010000D03*
D17*
X200025000Y-72210000D03*
G04 #@! TD*
D19*
G04 #@! TO.C,D34*
X219075000Y-74535000D03*
X219075000Y-77685000D03*
D18*
X219075000Y-80010000D03*
D17*
X219075000Y-72210000D03*
G04 #@! TD*
D19*
G04 #@! TO.C,D35*
X227025000Y-85725000D03*
X230175000Y-85725000D03*
D18*
X232500000Y-85725000D03*
D17*
X224700000Y-85725000D03*
G04 #@! TD*
D19*
G04 #@! TO.C,D36*
X238125000Y-74625000D03*
X238125000Y-77775000D03*
D18*
X238125000Y-80100000D03*
D17*
X238125000Y-72300000D03*
G04 #@! TD*
D19*
G04 #@! TO.C,D37*
X36525000Y-85725000D03*
X39675000Y-85725000D03*
D18*
X42000000Y-85725000D03*
D17*
X34200000Y-85725000D03*
G04 #@! TD*
D19*
G04 #@! TO.C,D38*
X47625000Y-93040000D03*
X47625000Y-96190000D03*
D18*
X47625000Y-98515000D03*
D17*
X47625000Y-90715000D03*
G04 #@! TD*
D19*
G04 #@! TO.C,D39*
X66675000Y-93040000D03*
X66675000Y-96190000D03*
D18*
X66675000Y-98515000D03*
D17*
X66675000Y-90715000D03*
G04 #@! TD*
D19*
G04 #@! TO.C,D40*
X85725000Y-93040000D03*
X85725000Y-96190000D03*
D18*
X85725000Y-98515000D03*
D17*
X85725000Y-90715000D03*
G04 #@! TD*
D19*
G04 #@! TO.C,D41*
X104775000Y-93040000D03*
X104775000Y-96190000D03*
D18*
X104775000Y-98515000D03*
D17*
X104775000Y-90715000D03*
G04 #@! TD*
D19*
G04 #@! TO.C,D42*
X123825000Y-93040000D03*
X123825000Y-96190000D03*
D18*
X123825000Y-98515000D03*
D17*
X123825000Y-90715000D03*
G04 #@! TD*
D19*
G04 #@! TO.C,D43*
X161925000Y-93040000D03*
X161925000Y-96190000D03*
D18*
X161925000Y-98515000D03*
D17*
X161925000Y-90715000D03*
G04 #@! TD*
G04 #@! TO.C,D44*
X180975000Y-90715000D03*
D18*
X180975000Y-98515000D03*
D19*
X180975000Y-96190000D03*
X180975000Y-93040000D03*
G04 #@! TD*
G04 #@! TO.C,D45*
X200025000Y-93040000D03*
X200025000Y-96190000D03*
D18*
X200025000Y-98515000D03*
D17*
X200025000Y-90715000D03*
G04 #@! TD*
G04 #@! TO.C,D46*
X219075000Y-90715000D03*
D18*
X219075000Y-98515000D03*
D19*
X219075000Y-96190000D03*
X219075000Y-93040000D03*
G04 #@! TD*
D17*
G04 #@! TO.C,D47*
X238125000Y-90715000D03*
D18*
X238125000Y-98515000D03*
D19*
X238125000Y-96190000D03*
X238125000Y-93040000D03*
G04 #@! TD*
G04 #@! TO.C,D48*
X245440000Y-85725000D03*
X248590000Y-85725000D03*
D18*
X250915000Y-85725000D03*
D17*
X243115000Y-85725000D03*
G04 #@! TD*
D15*
G04 #@! TO.C,J10*
X39370000Y-47625000D03*
D16*
X36830000Y-47625000D03*
G04 #@! TD*
D20*
G04 #@! TO.C,SW2*
X46125000Y-30734000D03*
X49125000Y-30734000D03*
G04 #@! TD*
M02*
