G04 #@! TF.GenerationSoftware,KiCad,Pcbnew,(5.0.0)*
G04 #@! TF.CreationDate,2018-11-10T23:00:33-06:00*
G04 #@! TF.ProjectId,Contra,436F6E7472612E6B696361645F706362,rev?*
G04 #@! TF.SameCoordinates,Original*
G04 #@! TF.FileFunction,Legend,Top*
G04 #@! TF.FilePolarity,Positive*
%FSLAX46Y46*%
G04 Gerber Fmt 4.6, Leading zero omitted, Abs format (unit mm)*
G04 Created by KiCad (PCBNEW (5.0.0)) date 11/10/18 23:00:33*
%MOMM*%
%LPD*%
G01*
G04 APERTURE LIST*
%ADD10C,0.150000*%
%ADD11C,0.120000*%
%ADD12C,0.200000*%
G04 APERTURE END LIST*
D10*
X70556571Y-31313380D02*
X70223238Y-30837190D01*
X69985142Y-31313380D02*
X69985142Y-30313380D01*
X70366095Y-30313380D01*
X70461333Y-30361000D01*
X70508952Y-30408619D01*
X70556571Y-30503857D01*
X70556571Y-30646714D01*
X70508952Y-30741952D01*
X70461333Y-30789571D01*
X70366095Y-30837190D01*
X69985142Y-30837190D01*
X70937523Y-31027666D02*
X71413714Y-31027666D01*
X70842285Y-31313380D02*
X71175619Y-30313380D01*
X71508952Y-31313380D01*
X71747047Y-30313380D02*
X71985142Y-31313380D01*
X72175619Y-30599095D01*
X72366095Y-31313380D01*
X72604190Y-30313380D01*
X35457190Y-44712000D02*
X35361952Y-44664380D01*
X35219095Y-44664380D01*
X35076238Y-44712000D01*
X34981000Y-44807238D01*
X34933380Y-44902476D01*
X34885761Y-45092952D01*
X34885761Y-45235809D01*
X34933380Y-45426285D01*
X34981000Y-45521523D01*
X35076238Y-45616761D01*
X35219095Y-45664380D01*
X35314333Y-45664380D01*
X35457190Y-45616761D01*
X35504809Y-45569142D01*
X35504809Y-45235809D01*
X35314333Y-45235809D01*
X35933380Y-45664380D02*
X35933380Y-44664380D01*
X36504809Y-45664380D01*
X36504809Y-44664380D01*
X36981000Y-45664380D02*
X36981000Y-44664380D01*
X37219095Y-44664380D01*
X37361952Y-44712000D01*
X37457190Y-44807238D01*
X37504809Y-44902476D01*
X37552428Y-45092952D01*
X37552428Y-45235809D01*
X37504809Y-45426285D01*
X37457190Y-45521523D01*
X37361952Y-45616761D01*
X37219095Y-45664380D01*
X36981000Y-45664380D01*
X39314333Y-45664380D02*
X38981000Y-45188190D01*
X38742904Y-45664380D02*
X38742904Y-44664380D01*
X39123857Y-44664380D01*
X39219095Y-44712000D01*
X39266714Y-44759619D01*
X39314333Y-44854857D01*
X39314333Y-44997714D01*
X39266714Y-45092952D01*
X39219095Y-45140571D01*
X39123857Y-45188190D01*
X38742904Y-45188190D01*
X39695285Y-45378666D02*
X40171476Y-45378666D01*
X39600047Y-45664380D02*
X39933380Y-44664380D01*
X40266714Y-45664380D01*
X40504809Y-44664380D02*
X40742904Y-45664380D01*
X40933380Y-44950095D01*
X41123857Y-45664380D01*
X41361952Y-44664380D01*
X42894904Y-64841380D02*
X42323476Y-64841380D01*
X42609190Y-64841380D02*
X42609190Y-63841380D01*
X42513952Y-63984238D01*
X42418714Y-64079476D01*
X42323476Y-64127095D01*
X43466333Y-64269952D02*
X43371095Y-64222333D01*
X43323476Y-64174714D01*
X43275857Y-64079476D01*
X43275857Y-64031857D01*
X43323476Y-63936619D01*
X43371095Y-63889000D01*
X43466333Y-63841380D01*
X43656809Y-63841380D01*
X43752047Y-63889000D01*
X43799666Y-63936619D01*
X43847285Y-64031857D01*
X43847285Y-64079476D01*
X43799666Y-64174714D01*
X43752047Y-64222333D01*
X43656809Y-64269952D01*
X43466333Y-64269952D01*
X43371095Y-64317571D01*
X43323476Y-64365190D01*
X43275857Y-64460428D01*
X43275857Y-64650904D01*
X43323476Y-64746142D01*
X43371095Y-64793761D01*
X43466333Y-64841380D01*
X43656809Y-64841380D01*
X43752047Y-64793761D01*
X43799666Y-64746142D01*
X43847285Y-64650904D01*
X43847285Y-64460428D01*
X43799666Y-64365190D01*
X43752047Y-64317571D01*
X43656809Y-64269952D01*
X45561571Y-64841380D02*
X44990142Y-64841380D01*
X45275857Y-64841380D02*
X45275857Y-63841380D01*
X45180619Y-63984238D01*
X45085380Y-64079476D01*
X44990142Y-64127095D01*
X46466333Y-63841380D02*
X45990142Y-63841380D01*
X45942523Y-64317571D01*
X45990142Y-64269952D01*
X46085380Y-64222333D01*
X46323476Y-64222333D01*
X46418714Y-64269952D01*
X46466333Y-64317571D01*
X46513952Y-64412809D01*
X46513952Y-64650904D01*
X46466333Y-64746142D01*
X46418714Y-64793761D01*
X46323476Y-64841380D01*
X46085380Y-64841380D01*
X45990142Y-64793761D01*
X45942523Y-64746142D01*
X47561571Y-63841380D02*
X47894904Y-64841380D01*
X48228238Y-63841380D01*
X49133000Y-64746142D02*
X49085380Y-64793761D01*
X48942523Y-64841380D01*
X48847285Y-64841380D01*
X48704428Y-64793761D01*
X48609190Y-64698523D01*
X48561571Y-64603285D01*
X48513952Y-64412809D01*
X48513952Y-64269952D01*
X48561571Y-64079476D01*
X48609190Y-63984238D01*
X48704428Y-63889000D01*
X48847285Y-63841380D01*
X48942523Y-63841380D01*
X49085380Y-63889000D01*
X49133000Y-63936619D01*
X50133000Y-64746142D02*
X50085380Y-64793761D01*
X49942523Y-64841380D01*
X49847285Y-64841380D01*
X49704428Y-64793761D01*
X49609190Y-64698523D01*
X49561571Y-64603285D01*
X49513952Y-64412809D01*
X49513952Y-64269952D01*
X49561571Y-64079476D01*
X49609190Y-63984238D01*
X49704428Y-63889000D01*
X49847285Y-63841380D01*
X49942523Y-63841380D01*
X50085380Y-63889000D01*
X50133000Y-63936619D01*
X51847285Y-63889000D02*
X51752047Y-63841380D01*
X51609190Y-63841380D01*
X51466333Y-63889000D01*
X51371095Y-63984238D01*
X51323476Y-64079476D01*
X51275857Y-64269952D01*
X51275857Y-64412809D01*
X51323476Y-64603285D01*
X51371095Y-64698523D01*
X51466333Y-64793761D01*
X51609190Y-64841380D01*
X51704428Y-64841380D01*
X51847285Y-64793761D01*
X51894904Y-64746142D01*
X51894904Y-64412809D01*
X51704428Y-64412809D01*
X52323476Y-64841380D02*
X52323476Y-63841380D01*
X52894904Y-64841380D01*
X52894904Y-63841380D01*
X53371095Y-64841380D02*
X53371095Y-63841380D01*
X53609190Y-63841380D01*
X53752047Y-63889000D01*
X53847285Y-63984238D01*
X53894904Y-64079476D01*
X53942523Y-64269952D01*
X53942523Y-64412809D01*
X53894904Y-64603285D01*
X53847285Y-64698523D01*
X53752047Y-64793761D01*
X53609190Y-64841380D01*
X53371095Y-64841380D01*
D11*
G04 #@! TO.C,J9*
X52765000Y-68005000D02*
X52765000Y-65345000D01*
X45085000Y-68005000D02*
X52765000Y-68005000D01*
X45085000Y-65345000D02*
X52765000Y-65345000D01*
X45085000Y-68005000D02*
X45085000Y-65345000D01*
X43815000Y-68005000D02*
X42485000Y-68005000D01*
X42485000Y-68005000D02*
X42485000Y-66675000D01*
D12*
G04 #@! TO.C,D1*
X48825000Y-35935000D02*
X48825000Y-41735000D01*
X46425000Y-35935000D02*
X48825000Y-35935000D01*
X46425000Y-41735000D02*
X46425000Y-35935000D01*
X46425000Y-41660000D02*
X48825000Y-41660000D01*
X46425000Y-41535000D02*
X48825000Y-41535000D01*
X48825000Y-41760000D02*
X46425000Y-41760000D01*
X46425000Y-41360000D02*
X48825000Y-41360000D01*
X46425000Y-41185000D02*
X48825000Y-41185000D01*
X46425000Y-41010000D02*
X48825000Y-41010000D01*
G04 #@! TO.C,D2*
X63076250Y-48825000D02*
X63076250Y-46425000D01*
X63251250Y-48825000D02*
X63251250Y-46425000D01*
X63426250Y-48825000D02*
X63426250Y-46425000D01*
X63826250Y-46425000D02*
X63826250Y-48825000D01*
X63601250Y-48825000D02*
X63601250Y-46425000D01*
X63726250Y-48825000D02*
X63726250Y-46425000D01*
X63801250Y-48825000D02*
X58001250Y-48825000D01*
X58001250Y-48825000D02*
X58001250Y-46425000D01*
X58001250Y-46425000D02*
X63801250Y-46425000D01*
G04 #@! TO.C,D3*
X73400000Y-65475000D02*
X79200000Y-65475000D01*
X73400000Y-67875000D02*
X73400000Y-65475000D01*
X79200000Y-67875000D02*
X73400000Y-67875000D01*
X79125000Y-67875000D02*
X79125000Y-65475000D01*
X79000000Y-67875000D02*
X79000000Y-65475000D01*
X79225000Y-65475000D02*
X79225000Y-67875000D01*
X78825000Y-67875000D02*
X78825000Y-65475000D01*
X78650000Y-67875000D02*
X78650000Y-65475000D01*
X78475000Y-67875000D02*
X78475000Y-65475000D01*
G04 #@! TO.C,D4*
X103575000Y-39740000D02*
X105975000Y-39740000D01*
X103575000Y-39915000D02*
X105975000Y-39915000D01*
X103575000Y-40090000D02*
X105975000Y-40090000D01*
X105975000Y-40490000D02*
X103575000Y-40490000D01*
X103575000Y-40265000D02*
X105975000Y-40265000D01*
X103575000Y-40390000D02*
X105975000Y-40390000D01*
X103575000Y-40465000D02*
X103575000Y-34665000D01*
X103575000Y-34665000D02*
X105975000Y-34665000D01*
X105975000Y-34665000D02*
X105975000Y-40465000D01*
G04 #@! TO.C,D5*
X125025000Y-34665000D02*
X125025000Y-40465000D01*
X122625000Y-34665000D02*
X125025000Y-34665000D01*
X122625000Y-40465000D02*
X122625000Y-34665000D01*
X122625000Y-40390000D02*
X125025000Y-40390000D01*
X122625000Y-40265000D02*
X125025000Y-40265000D01*
X125025000Y-40490000D02*
X122625000Y-40490000D01*
X122625000Y-40090000D02*
X125025000Y-40090000D01*
X122625000Y-39915000D02*
X125025000Y-39915000D01*
X122625000Y-39740000D02*
X125025000Y-39740000D01*
G04 #@! TO.C,D6*
X141675000Y-39740000D02*
X144075000Y-39740000D01*
X141675000Y-39915000D02*
X144075000Y-39915000D01*
X141675000Y-40090000D02*
X144075000Y-40090000D01*
X144075000Y-40490000D02*
X141675000Y-40490000D01*
X141675000Y-40265000D02*
X144075000Y-40265000D01*
X141675000Y-40390000D02*
X144075000Y-40390000D01*
X141675000Y-40465000D02*
X141675000Y-34665000D01*
X141675000Y-34665000D02*
X144075000Y-34665000D01*
X144075000Y-34665000D02*
X144075000Y-40465000D01*
G04 #@! TO.C,D7*
X163125000Y-34665000D02*
X163125000Y-40465000D01*
X160725000Y-34665000D02*
X163125000Y-34665000D01*
X160725000Y-40465000D02*
X160725000Y-34665000D01*
X160725000Y-40390000D02*
X163125000Y-40390000D01*
X160725000Y-40265000D02*
X163125000Y-40265000D01*
X163125000Y-40490000D02*
X160725000Y-40490000D01*
X160725000Y-40090000D02*
X163125000Y-40090000D01*
X160725000Y-39915000D02*
X163125000Y-39915000D01*
X160725000Y-39740000D02*
X163125000Y-39740000D01*
G04 #@! TO.C,D8*
X179775000Y-39740000D02*
X182175000Y-39740000D01*
X179775000Y-39915000D02*
X182175000Y-39915000D01*
X179775000Y-40090000D02*
X182175000Y-40090000D01*
X182175000Y-40490000D02*
X179775000Y-40490000D01*
X179775000Y-40265000D02*
X182175000Y-40265000D01*
X179775000Y-40390000D02*
X182175000Y-40390000D01*
X179775000Y-40465000D02*
X179775000Y-34665000D01*
X179775000Y-34665000D02*
X182175000Y-34665000D01*
X182175000Y-34665000D02*
X182175000Y-40465000D01*
G04 #@! TO.C,D9*
X201225000Y-34665000D02*
X201225000Y-40465000D01*
X198825000Y-34665000D02*
X201225000Y-34665000D01*
X198825000Y-40465000D02*
X198825000Y-34665000D01*
X198825000Y-40390000D02*
X201225000Y-40390000D01*
X198825000Y-40265000D02*
X201225000Y-40265000D01*
X201225000Y-40490000D02*
X198825000Y-40490000D01*
X198825000Y-40090000D02*
X201225000Y-40090000D01*
X198825000Y-39915000D02*
X201225000Y-39915000D01*
X198825000Y-39740000D02*
X201225000Y-39740000D01*
G04 #@! TO.C,D10*
X217875000Y-39740000D02*
X220275000Y-39740000D01*
X217875000Y-39915000D02*
X220275000Y-39915000D01*
X217875000Y-40090000D02*
X220275000Y-40090000D01*
X220275000Y-40490000D02*
X217875000Y-40490000D01*
X217875000Y-40265000D02*
X220275000Y-40265000D01*
X217875000Y-40390000D02*
X220275000Y-40390000D01*
X217875000Y-40465000D02*
X217875000Y-34665000D01*
X217875000Y-34665000D02*
X220275000Y-34665000D01*
X220275000Y-34665000D02*
X220275000Y-40465000D01*
G04 #@! TO.C,D11*
X239325000Y-34665000D02*
X239325000Y-40465000D01*
X236925000Y-34665000D02*
X239325000Y-34665000D01*
X236925000Y-40465000D02*
X236925000Y-34665000D01*
X236925000Y-40390000D02*
X239325000Y-40390000D01*
X236925000Y-40265000D02*
X239325000Y-40265000D01*
X239325000Y-40490000D02*
X236925000Y-40490000D01*
X236925000Y-40090000D02*
X239325000Y-40090000D01*
X236925000Y-39915000D02*
X239325000Y-39915000D01*
X236925000Y-39740000D02*
X239325000Y-39740000D01*
G04 #@! TO.C,D12*
X249925000Y-48825000D02*
X249925000Y-46425000D01*
X250100000Y-48825000D02*
X250100000Y-46425000D01*
X250275000Y-48825000D02*
X250275000Y-46425000D01*
X250675000Y-46425000D02*
X250675000Y-48825000D01*
X250450000Y-48825000D02*
X250450000Y-46425000D01*
X250575000Y-48825000D02*
X250575000Y-46425000D01*
X250650000Y-48825000D02*
X244850000Y-48825000D01*
X244850000Y-48825000D02*
X244850000Y-46425000D01*
X244850000Y-46425000D02*
X250650000Y-46425000D01*
G04 #@! TO.C,D13*
X48825000Y-54985000D02*
X48825000Y-60785000D01*
X46425000Y-54985000D02*
X48825000Y-54985000D01*
X46425000Y-60785000D02*
X46425000Y-54985000D01*
X46425000Y-60710000D02*
X48825000Y-60710000D01*
X46425000Y-60585000D02*
X48825000Y-60585000D01*
X48825000Y-60810000D02*
X46425000Y-60810000D01*
X46425000Y-60410000D02*
X48825000Y-60410000D01*
X46425000Y-60235000D02*
X48825000Y-60235000D01*
X46425000Y-60060000D02*
X48825000Y-60060000D01*
G04 #@! TO.C,D14*
X63076250Y-67875000D02*
X63076250Y-65475000D01*
X63251250Y-67875000D02*
X63251250Y-65475000D01*
X63426250Y-67875000D02*
X63426250Y-65475000D01*
X63826250Y-65475000D02*
X63826250Y-67875000D01*
X63601250Y-67875000D02*
X63601250Y-65475000D01*
X63726250Y-67875000D02*
X63726250Y-65475000D01*
X63801250Y-67875000D02*
X58001250Y-67875000D01*
X58001250Y-67875000D02*
X58001250Y-65475000D01*
X58001250Y-65475000D02*
X63801250Y-65475000D01*
G04 #@! TO.C,D15*
X96890000Y-67875000D02*
X96890000Y-65475000D01*
X97065000Y-67875000D02*
X97065000Y-65475000D01*
X97240000Y-67875000D02*
X97240000Y-65475000D01*
X97640000Y-65475000D02*
X97640000Y-67875000D01*
X97415000Y-67875000D02*
X97415000Y-65475000D01*
X97540000Y-67875000D02*
X97540000Y-65475000D01*
X97615000Y-67875000D02*
X91815000Y-67875000D01*
X91815000Y-67875000D02*
X91815000Y-65475000D01*
X91815000Y-65475000D02*
X97615000Y-65475000D01*
G04 #@! TO.C,D16*
X105975000Y-53625000D02*
X105975000Y-59425000D01*
X103575000Y-53625000D02*
X105975000Y-53625000D01*
X103575000Y-59425000D02*
X103575000Y-53625000D01*
X103575000Y-59350000D02*
X105975000Y-59350000D01*
X103575000Y-59225000D02*
X105975000Y-59225000D01*
X105975000Y-59450000D02*
X103575000Y-59450000D01*
X103575000Y-59050000D02*
X105975000Y-59050000D01*
X103575000Y-58875000D02*
X105975000Y-58875000D01*
X103575000Y-58700000D02*
X105975000Y-58700000D01*
G04 #@! TO.C,D17*
X125025000Y-53625000D02*
X125025000Y-59425000D01*
X122625000Y-53625000D02*
X125025000Y-53625000D01*
X122625000Y-59425000D02*
X122625000Y-53625000D01*
X122625000Y-59350000D02*
X125025000Y-59350000D01*
X122625000Y-59225000D02*
X125025000Y-59225000D01*
X125025000Y-59450000D02*
X122625000Y-59450000D01*
X122625000Y-59050000D02*
X125025000Y-59050000D01*
X122625000Y-58875000D02*
X125025000Y-58875000D01*
X122625000Y-58700000D02*
X125025000Y-58700000D01*
G04 #@! TO.C,D18*
X144075000Y-53625000D02*
X144075000Y-59425000D01*
X141675000Y-53625000D02*
X144075000Y-53625000D01*
X141675000Y-59425000D02*
X141675000Y-53625000D01*
X141675000Y-59350000D02*
X144075000Y-59350000D01*
X141675000Y-59225000D02*
X144075000Y-59225000D01*
X144075000Y-59450000D02*
X141675000Y-59450000D01*
X141675000Y-59050000D02*
X144075000Y-59050000D01*
X141675000Y-58875000D02*
X144075000Y-58875000D01*
X141675000Y-58700000D02*
X144075000Y-58700000D01*
G04 #@! TO.C,D19*
X163125000Y-53625000D02*
X163125000Y-59425000D01*
X160725000Y-53625000D02*
X163125000Y-53625000D01*
X160725000Y-59425000D02*
X160725000Y-53625000D01*
X160725000Y-59350000D02*
X163125000Y-59350000D01*
X160725000Y-59225000D02*
X163125000Y-59225000D01*
X163125000Y-59450000D02*
X160725000Y-59450000D01*
X160725000Y-59050000D02*
X163125000Y-59050000D01*
X160725000Y-58875000D02*
X163125000Y-58875000D01*
X160725000Y-58700000D02*
X163125000Y-58700000D01*
G04 #@! TO.C,D20*
X182175000Y-53715000D02*
X182175000Y-59515000D01*
X179775000Y-53715000D02*
X182175000Y-53715000D01*
X179775000Y-59515000D02*
X179775000Y-53715000D01*
X179775000Y-59440000D02*
X182175000Y-59440000D01*
X179775000Y-59315000D02*
X182175000Y-59315000D01*
X182175000Y-59540000D02*
X179775000Y-59540000D01*
X179775000Y-59140000D02*
X182175000Y-59140000D01*
X179775000Y-58965000D02*
X182175000Y-58965000D01*
X179775000Y-58790000D02*
X182175000Y-58790000D01*
G04 #@! TO.C,D21*
X201225000Y-53715000D02*
X201225000Y-59515000D01*
X198825000Y-53715000D02*
X201225000Y-53715000D01*
X198825000Y-59515000D02*
X198825000Y-53715000D01*
X198825000Y-59440000D02*
X201225000Y-59440000D01*
X198825000Y-59315000D02*
X201225000Y-59315000D01*
X201225000Y-59540000D02*
X198825000Y-59540000D01*
X198825000Y-59140000D02*
X201225000Y-59140000D01*
X198825000Y-58965000D02*
X201225000Y-58965000D01*
X198825000Y-58790000D02*
X201225000Y-58790000D01*
G04 #@! TO.C,D22*
X220275000Y-53715000D02*
X220275000Y-59515000D01*
X217875000Y-53715000D02*
X220275000Y-53715000D01*
X217875000Y-59515000D02*
X217875000Y-53715000D01*
X217875000Y-59440000D02*
X220275000Y-59440000D01*
X217875000Y-59315000D02*
X220275000Y-59315000D01*
X220275000Y-59540000D02*
X217875000Y-59540000D01*
X217875000Y-59140000D02*
X220275000Y-59140000D01*
X217875000Y-58965000D02*
X220275000Y-58965000D01*
X217875000Y-58790000D02*
X220275000Y-58790000D01*
G04 #@! TO.C,D23*
X239325000Y-53715000D02*
X239325000Y-59515000D01*
X236925000Y-53715000D02*
X239325000Y-53715000D01*
X236925000Y-59515000D02*
X236925000Y-53715000D01*
X236925000Y-59440000D02*
X239325000Y-59440000D01*
X236925000Y-59315000D02*
X239325000Y-59315000D01*
X239325000Y-59540000D02*
X236925000Y-59540000D01*
X236925000Y-59140000D02*
X239325000Y-59140000D01*
X236925000Y-58965000D02*
X239325000Y-58965000D01*
X236925000Y-58790000D02*
X239325000Y-58790000D01*
G04 #@! TO.C,D24*
X244850000Y-65475000D02*
X250650000Y-65475000D01*
X244850000Y-67875000D02*
X244850000Y-65475000D01*
X250650000Y-67875000D02*
X244850000Y-67875000D01*
X250575000Y-67875000D02*
X250575000Y-65475000D01*
X250450000Y-67875000D02*
X250450000Y-65475000D01*
X250675000Y-65475000D02*
X250675000Y-67875000D01*
X250275000Y-67875000D02*
X250275000Y-65475000D01*
X250100000Y-67875000D02*
X250100000Y-65475000D01*
X249925000Y-67875000D02*
X249925000Y-65475000D01*
G04 #@! TO.C,D25*
X48825000Y-72765000D02*
X48825000Y-78565000D01*
X46425000Y-72765000D02*
X48825000Y-72765000D01*
X46425000Y-78565000D02*
X46425000Y-72765000D01*
X46425000Y-78490000D02*
X48825000Y-78490000D01*
X46425000Y-78365000D02*
X48825000Y-78365000D01*
X48825000Y-78590000D02*
X46425000Y-78590000D01*
X46425000Y-78190000D02*
X48825000Y-78190000D01*
X46425000Y-78015000D02*
X48825000Y-78015000D01*
X46425000Y-77840000D02*
X48825000Y-77840000D01*
G04 #@! TO.C,D26*
X67875000Y-72765000D02*
X67875000Y-78565000D01*
X65475000Y-72765000D02*
X67875000Y-72765000D01*
X65475000Y-78565000D02*
X65475000Y-72765000D01*
X65475000Y-78490000D02*
X67875000Y-78490000D01*
X65475000Y-78365000D02*
X67875000Y-78365000D01*
X67875000Y-78590000D02*
X65475000Y-78590000D01*
X65475000Y-78190000D02*
X67875000Y-78190000D01*
X65475000Y-78015000D02*
X67875000Y-78015000D01*
X65475000Y-77840000D02*
X67875000Y-77840000D01*
G04 #@! TO.C,D27*
X86925000Y-72765000D02*
X86925000Y-78565000D01*
X84525000Y-72765000D02*
X86925000Y-72765000D01*
X84525000Y-78565000D02*
X84525000Y-72765000D01*
X84525000Y-78490000D02*
X86925000Y-78490000D01*
X84525000Y-78365000D02*
X86925000Y-78365000D01*
X86925000Y-78590000D02*
X84525000Y-78590000D01*
X84525000Y-78190000D02*
X86925000Y-78190000D01*
X84525000Y-78015000D02*
X86925000Y-78015000D01*
X84525000Y-77840000D02*
X86925000Y-77840000D01*
G04 #@! TO.C,D28*
X105975000Y-72765000D02*
X105975000Y-78565000D01*
X103575000Y-72765000D02*
X105975000Y-72765000D01*
X103575000Y-78565000D02*
X103575000Y-72765000D01*
X103575000Y-78490000D02*
X105975000Y-78490000D01*
X103575000Y-78365000D02*
X105975000Y-78365000D01*
X105975000Y-78590000D02*
X103575000Y-78590000D01*
X103575000Y-78190000D02*
X105975000Y-78190000D01*
X103575000Y-78015000D02*
X105975000Y-78015000D01*
X103575000Y-77840000D02*
X105975000Y-77840000D01*
G04 #@! TO.C,D29*
X125025000Y-72765000D02*
X125025000Y-78565000D01*
X122625000Y-72765000D02*
X125025000Y-72765000D01*
X122625000Y-78565000D02*
X122625000Y-72765000D01*
X122625000Y-78490000D02*
X125025000Y-78490000D01*
X122625000Y-78365000D02*
X125025000Y-78365000D01*
X125025000Y-78590000D02*
X122625000Y-78590000D01*
X122625000Y-78190000D02*
X125025000Y-78190000D01*
X122625000Y-78015000D02*
X125025000Y-78015000D01*
X122625000Y-77840000D02*
X125025000Y-77840000D01*
G04 #@! TO.C,D30*
X141675000Y-77840000D02*
X144075000Y-77840000D01*
X141675000Y-78015000D02*
X144075000Y-78015000D01*
X141675000Y-78190000D02*
X144075000Y-78190000D01*
X144075000Y-78590000D02*
X141675000Y-78590000D01*
X141675000Y-78365000D02*
X144075000Y-78365000D01*
X141675000Y-78490000D02*
X144075000Y-78490000D01*
X141675000Y-78565000D02*
X141675000Y-72765000D01*
X141675000Y-72765000D02*
X144075000Y-72765000D01*
X144075000Y-72765000D02*
X144075000Y-78565000D01*
G04 #@! TO.C,D31*
X160725000Y-77840000D02*
X163125000Y-77840000D01*
X160725000Y-78015000D02*
X163125000Y-78015000D01*
X160725000Y-78190000D02*
X163125000Y-78190000D01*
X163125000Y-78590000D02*
X160725000Y-78590000D01*
X160725000Y-78365000D02*
X163125000Y-78365000D01*
X160725000Y-78490000D02*
X163125000Y-78490000D01*
X160725000Y-78565000D02*
X160725000Y-72765000D01*
X160725000Y-72765000D02*
X163125000Y-72765000D01*
X163125000Y-72765000D02*
X163125000Y-78565000D01*
G04 #@! TO.C,D32*
X179775000Y-77840000D02*
X182175000Y-77840000D01*
X179775000Y-78015000D02*
X182175000Y-78015000D01*
X179775000Y-78190000D02*
X182175000Y-78190000D01*
X182175000Y-78590000D02*
X179775000Y-78590000D01*
X179775000Y-78365000D02*
X182175000Y-78365000D01*
X179775000Y-78490000D02*
X182175000Y-78490000D01*
X179775000Y-78565000D02*
X179775000Y-72765000D01*
X179775000Y-72765000D02*
X182175000Y-72765000D01*
X182175000Y-72765000D02*
X182175000Y-78565000D01*
G04 #@! TO.C,D33*
X198825000Y-78385000D02*
X201225000Y-78385000D01*
X198825000Y-78560000D02*
X201225000Y-78560000D01*
X198825000Y-78735000D02*
X201225000Y-78735000D01*
X201225000Y-79135000D02*
X198825000Y-79135000D01*
X198825000Y-78910000D02*
X201225000Y-78910000D01*
X198825000Y-79035000D02*
X201225000Y-79035000D01*
X198825000Y-79110000D02*
X198825000Y-73310000D01*
X198825000Y-73310000D02*
X201225000Y-73310000D01*
X201225000Y-73310000D02*
X201225000Y-79110000D01*
G04 #@! TO.C,D34*
X217875000Y-78385000D02*
X220275000Y-78385000D01*
X217875000Y-78560000D02*
X220275000Y-78560000D01*
X217875000Y-78735000D02*
X220275000Y-78735000D01*
X220275000Y-79135000D02*
X217875000Y-79135000D01*
X217875000Y-78910000D02*
X220275000Y-78910000D01*
X217875000Y-79035000D02*
X220275000Y-79035000D01*
X217875000Y-79110000D02*
X217875000Y-73310000D01*
X217875000Y-73310000D02*
X220275000Y-73310000D01*
X220275000Y-73310000D02*
X220275000Y-79110000D01*
G04 #@! TO.C,D35*
X230875000Y-86925000D02*
X230875000Y-84525000D01*
X231050000Y-86925000D02*
X231050000Y-84525000D01*
X231225000Y-86925000D02*
X231225000Y-84525000D01*
X231625000Y-84525000D02*
X231625000Y-86925000D01*
X231400000Y-86925000D02*
X231400000Y-84525000D01*
X231525000Y-86925000D02*
X231525000Y-84525000D01*
X231600000Y-86925000D02*
X225800000Y-86925000D01*
X225800000Y-86925000D02*
X225800000Y-84525000D01*
X225800000Y-84525000D02*
X231600000Y-84525000D01*
G04 #@! TO.C,D36*
X236925000Y-78475000D02*
X239325000Y-78475000D01*
X236925000Y-78650000D02*
X239325000Y-78650000D01*
X236925000Y-78825000D02*
X239325000Y-78825000D01*
X239325000Y-79225000D02*
X236925000Y-79225000D01*
X236925000Y-79000000D02*
X239325000Y-79000000D01*
X236925000Y-79125000D02*
X239325000Y-79125000D01*
X236925000Y-79200000D02*
X236925000Y-73400000D01*
X236925000Y-73400000D02*
X239325000Y-73400000D01*
X239325000Y-73400000D02*
X239325000Y-79200000D01*
G04 #@! TO.C,D37*
X40375000Y-86925000D02*
X40375000Y-84525000D01*
X40550000Y-86925000D02*
X40550000Y-84525000D01*
X40725000Y-86925000D02*
X40725000Y-84525000D01*
X41125000Y-84525000D02*
X41125000Y-86925000D01*
X40900000Y-86925000D02*
X40900000Y-84525000D01*
X41025000Y-86925000D02*
X41025000Y-84525000D01*
X41100000Y-86925000D02*
X35300000Y-86925000D01*
X35300000Y-86925000D02*
X35300000Y-84525000D01*
X35300000Y-84525000D02*
X41100000Y-84525000D01*
G04 #@! TO.C,D38*
X46425000Y-96890000D02*
X48825000Y-96890000D01*
X46425000Y-97065000D02*
X48825000Y-97065000D01*
X46425000Y-97240000D02*
X48825000Y-97240000D01*
X48825000Y-97640000D02*
X46425000Y-97640000D01*
X46425000Y-97415000D02*
X48825000Y-97415000D01*
X46425000Y-97540000D02*
X48825000Y-97540000D01*
X46425000Y-97615000D02*
X46425000Y-91815000D01*
X46425000Y-91815000D02*
X48825000Y-91815000D01*
X48825000Y-91815000D02*
X48825000Y-97615000D01*
G04 #@! TO.C,D39*
X65475000Y-96890000D02*
X67875000Y-96890000D01*
X65475000Y-97065000D02*
X67875000Y-97065000D01*
X65475000Y-97240000D02*
X67875000Y-97240000D01*
X67875000Y-97640000D02*
X65475000Y-97640000D01*
X65475000Y-97415000D02*
X67875000Y-97415000D01*
X65475000Y-97540000D02*
X67875000Y-97540000D01*
X65475000Y-97615000D02*
X65475000Y-91815000D01*
X65475000Y-91815000D02*
X67875000Y-91815000D01*
X67875000Y-91815000D02*
X67875000Y-97615000D01*
G04 #@! TO.C,D40*
X84525000Y-96890000D02*
X86925000Y-96890000D01*
X84525000Y-97065000D02*
X86925000Y-97065000D01*
X84525000Y-97240000D02*
X86925000Y-97240000D01*
X86925000Y-97640000D02*
X84525000Y-97640000D01*
X84525000Y-97415000D02*
X86925000Y-97415000D01*
X84525000Y-97540000D02*
X86925000Y-97540000D01*
X84525000Y-97615000D02*
X84525000Y-91815000D01*
X84525000Y-91815000D02*
X86925000Y-91815000D01*
X86925000Y-91815000D02*
X86925000Y-97615000D01*
G04 #@! TO.C,D41*
X103575000Y-96890000D02*
X105975000Y-96890000D01*
X103575000Y-97065000D02*
X105975000Y-97065000D01*
X103575000Y-97240000D02*
X105975000Y-97240000D01*
X105975000Y-97640000D02*
X103575000Y-97640000D01*
X103575000Y-97415000D02*
X105975000Y-97415000D01*
X103575000Y-97540000D02*
X105975000Y-97540000D01*
X103575000Y-97615000D02*
X103575000Y-91815000D01*
X103575000Y-91815000D02*
X105975000Y-91815000D01*
X105975000Y-91815000D02*
X105975000Y-97615000D01*
G04 #@! TO.C,D42*
X122625000Y-96890000D02*
X125025000Y-96890000D01*
X122625000Y-97065000D02*
X125025000Y-97065000D01*
X122625000Y-97240000D02*
X125025000Y-97240000D01*
X125025000Y-97640000D02*
X122625000Y-97640000D01*
X122625000Y-97415000D02*
X125025000Y-97415000D01*
X122625000Y-97540000D02*
X125025000Y-97540000D01*
X122625000Y-97615000D02*
X122625000Y-91815000D01*
X122625000Y-91815000D02*
X125025000Y-91815000D01*
X125025000Y-91815000D02*
X125025000Y-97615000D01*
G04 #@! TO.C,D43*
X160725000Y-96890000D02*
X163125000Y-96890000D01*
X160725000Y-97065000D02*
X163125000Y-97065000D01*
X160725000Y-97240000D02*
X163125000Y-97240000D01*
X163125000Y-97640000D02*
X160725000Y-97640000D01*
X160725000Y-97415000D02*
X163125000Y-97415000D01*
X160725000Y-97540000D02*
X163125000Y-97540000D01*
X160725000Y-97615000D02*
X160725000Y-91815000D01*
X160725000Y-91815000D02*
X163125000Y-91815000D01*
X163125000Y-91815000D02*
X163125000Y-97615000D01*
G04 #@! TO.C,D44*
X182175000Y-91815000D02*
X182175000Y-97615000D01*
X179775000Y-91815000D02*
X182175000Y-91815000D01*
X179775000Y-97615000D02*
X179775000Y-91815000D01*
X179775000Y-97540000D02*
X182175000Y-97540000D01*
X179775000Y-97415000D02*
X182175000Y-97415000D01*
X182175000Y-97640000D02*
X179775000Y-97640000D01*
X179775000Y-97240000D02*
X182175000Y-97240000D01*
X179775000Y-97065000D02*
X182175000Y-97065000D01*
X179775000Y-96890000D02*
X182175000Y-96890000D01*
G04 #@! TO.C,D45*
X198825000Y-96890000D02*
X201225000Y-96890000D01*
X198825000Y-97065000D02*
X201225000Y-97065000D01*
X198825000Y-97240000D02*
X201225000Y-97240000D01*
X201225000Y-97640000D02*
X198825000Y-97640000D01*
X198825000Y-97415000D02*
X201225000Y-97415000D01*
X198825000Y-97540000D02*
X201225000Y-97540000D01*
X198825000Y-97615000D02*
X198825000Y-91815000D01*
X198825000Y-91815000D02*
X201225000Y-91815000D01*
X201225000Y-91815000D02*
X201225000Y-97615000D01*
G04 #@! TO.C,D46*
X220275000Y-91815000D02*
X220275000Y-97615000D01*
X217875000Y-91815000D02*
X220275000Y-91815000D01*
X217875000Y-97615000D02*
X217875000Y-91815000D01*
X217875000Y-97540000D02*
X220275000Y-97540000D01*
X217875000Y-97415000D02*
X220275000Y-97415000D01*
X220275000Y-97640000D02*
X217875000Y-97640000D01*
X217875000Y-97240000D02*
X220275000Y-97240000D01*
X217875000Y-97065000D02*
X220275000Y-97065000D01*
X217875000Y-96890000D02*
X220275000Y-96890000D01*
G04 #@! TO.C,D47*
X239325000Y-91815000D02*
X239325000Y-97615000D01*
X236925000Y-91815000D02*
X239325000Y-91815000D01*
X236925000Y-97615000D02*
X236925000Y-91815000D01*
X236925000Y-97540000D02*
X239325000Y-97540000D01*
X236925000Y-97415000D02*
X239325000Y-97415000D01*
X239325000Y-97640000D02*
X236925000Y-97640000D01*
X236925000Y-97240000D02*
X239325000Y-97240000D01*
X236925000Y-97065000D02*
X239325000Y-97065000D01*
X236925000Y-96890000D02*
X239325000Y-96890000D01*
G04 #@! TO.C,D48*
X249290000Y-86925000D02*
X249290000Y-84525000D01*
X249465000Y-86925000D02*
X249465000Y-84525000D01*
X249640000Y-86925000D02*
X249640000Y-84525000D01*
X250040000Y-84525000D02*
X250040000Y-86925000D01*
X249815000Y-86925000D02*
X249815000Y-84525000D01*
X249940000Y-86925000D02*
X249940000Y-84525000D01*
X250015000Y-86925000D02*
X244215000Y-86925000D01*
X244215000Y-86925000D02*
X244215000Y-84525000D01*
X244215000Y-84525000D02*
X250015000Y-84525000D01*
D11*
G04 #@! TO.C,J10*
X35500000Y-46295000D02*
X35500000Y-48955000D01*
X38100000Y-46295000D02*
X35500000Y-46295000D01*
X38100000Y-48955000D02*
X35500000Y-48955000D01*
X38100000Y-46295000D02*
X38100000Y-48955000D01*
X39370000Y-46295000D02*
X40700000Y-46295000D01*
X40700000Y-46295000D02*
X40700000Y-47625000D01*
G04 #@! TO.C,J1*
D10*
X47291666Y-44327380D02*
X47291666Y-45041666D01*
X47244047Y-45184523D01*
X47148809Y-45279761D01*
X47005952Y-45327380D01*
X46910714Y-45327380D01*
X48291666Y-45327380D02*
X47720238Y-45327380D01*
X48005952Y-45327380D02*
X48005952Y-44327380D01*
X47910714Y-44470238D01*
X47815476Y-44565476D01*
X47720238Y-44613095D01*
G04 #@! TO.C,J2*
X104441666Y-44327380D02*
X104441666Y-45041666D01*
X104394047Y-45184523D01*
X104298809Y-45279761D01*
X104155952Y-45327380D01*
X104060714Y-45327380D01*
X104870238Y-44422619D02*
X104917857Y-44375000D01*
X105013095Y-44327380D01*
X105251190Y-44327380D01*
X105346428Y-44375000D01*
X105394047Y-44422619D01*
X105441666Y-44517857D01*
X105441666Y-44613095D01*
X105394047Y-44755952D01*
X104822619Y-45327380D01*
X105441666Y-45327380D01*
G04 #@! TO.C,J3*
X47291666Y-82427380D02*
X47291666Y-83141666D01*
X47244047Y-83284523D01*
X47148809Y-83379761D01*
X47005952Y-83427380D01*
X46910714Y-83427380D01*
X47672619Y-82427380D02*
X48291666Y-82427380D01*
X47958333Y-82808333D01*
X48101190Y-82808333D01*
X48196428Y-82855952D01*
X48244047Y-82903571D01*
X48291666Y-82998809D01*
X48291666Y-83236904D01*
X48244047Y-83332142D01*
X48196428Y-83379761D01*
X48101190Y-83427380D01*
X47815476Y-83427380D01*
X47720238Y-83379761D01*
X47672619Y-83332142D01*
G04 #@! TO.C,J4*
X104441666Y-82427380D02*
X104441666Y-83141666D01*
X104394047Y-83284523D01*
X104298809Y-83379761D01*
X104155952Y-83427380D01*
X104060714Y-83427380D01*
X105346428Y-82760714D02*
X105346428Y-83427380D01*
X105108333Y-82379761D02*
X104870238Y-83094047D01*
X105489285Y-83094047D01*
G04 #@! TO.C,J5*
X180641666Y-44327380D02*
X180641666Y-45041666D01*
X180594047Y-45184523D01*
X180498809Y-45279761D01*
X180355952Y-45327380D01*
X180260714Y-45327380D01*
X181594047Y-44327380D02*
X181117857Y-44327380D01*
X181070238Y-44803571D01*
X181117857Y-44755952D01*
X181213095Y-44708333D01*
X181451190Y-44708333D01*
X181546428Y-44755952D01*
X181594047Y-44803571D01*
X181641666Y-44898809D01*
X181641666Y-45136904D01*
X181594047Y-45232142D01*
X181546428Y-45279761D01*
X181451190Y-45327380D01*
X181213095Y-45327380D01*
X181117857Y-45279761D01*
X181070238Y-45232142D01*
G04 #@! TO.C,J6*
X180641666Y-82427380D02*
X180641666Y-83141666D01*
X180594047Y-83284523D01*
X180498809Y-83379761D01*
X180355952Y-83427380D01*
X180260714Y-83427380D01*
X181546428Y-82427380D02*
X181355952Y-82427380D01*
X181260714Y-82475000D01*
X181213095Y-82522619D01*
X181117857Y-82665476D01*
X181070238Y-82855952D01*
X181070238Y-83236904D01*
X181117857Y-83332142D01*
X181165476Y-83379761D01*
X181260714Y-83427380D01*
X181451190Y-83427380D01*
X181546428Y-83379761D01*
X181594047Y-83332142D01*
X181641666Y-83236904D01*
X181641666Y-82998809D01*
X181594047Y-82903571D01*
X181546428Y-82855952D01*
X181451190Y-82808333D01*
X181260714Y-82808333D01*
X181165476Y-82855952D01*
X181117857Y-82903571D01*
X181070238Y-82998809D01*
G04 #@! TO.C,J7*
X237791666Y-44327380D02*
X237791666Y-45041666D01*
X237744047Y-45184523D01*
X237648809Y-45279761D01*
X237505952Y-45327380D01*
X237410714Y-45327380D01*
X238172619Y-44327380D02*
X238839285Y-44327380D01*
X238410714Y-45327380D01*
G04 #@! TO.C,J8*
X237791666Y-82427380D02*
X237791666Y-83141666D01*
X237744047Y-83284523D01*
X237648809Y-83379761D01*
X237505952Y-83427380D01*
X237410714Y-83427380D01*
X238410714Y-82855952D02*
X238315476Y-82808333D01*
X238267857Y-82760714D01*
X238220238Y-82665476D01*
X238220238Y-82617857D01*
X238267857Y-82522619D01*
X238315476Y-82475000D01*
X238410714Y-82427380D01*
X238601190Y-82427380D01*
X238696428Y-82475000D01*
X238744047Y-82522619D01*
X238791666Y-82617857D01*
X238791666Y-82665476D01*
X238744047Y-82760714D01*
X238696428Y-82808333D01*
X238601190Y-82855952D01*
X238410714Y-82855952D01*
X238315476Y-82903571D01*
X238267857Y-82951190D01*
X238220238Y-83046428D01*
X238220238Y-83236904D01*
X238267857Y-83332142D01*
X238315476Y-83379761D01*
X238410714Y-83427380D01*
X238601190Y-83427380D01*
X238696428Y-83379761D01*
X238744047Y-83332142D01*
X238791666Y-83236904D01*
X238791666Y-83046428D01*
X238744047Y-82951190D01*
X238696428Y-82903571D01*
X238601190Y-82855952D01*
G04 #@! TO.C,J9*
X40937380Y-67008333D02*
X41651666Y-67008333D01*
X41794523Y-67055952D01*
X41889761Y-67151190D01*
X41937380Y-67294047D01*
X41937380Y-67389285D01*
X41937380Y-66484523D02*
X41937380Y-66294047D01*
X41889761Y-66198809D01*
X41842142Y-66151190D01*
X41699285Y-66055952D01*
X41508809Y-66008333D01*
X41127857Y-66008333D01*
X41032619Y-66055952D01*
X40985000Y-66103571D01*
X40937380Y-66198809D01*
X40937380Y-66389285D01*
X40985000Y-66484523D01*
X41032619Y-66532142D01*
X41127857Y-66579761D01*
X41365952Y-66579761D01*
X41461190Y-66532142D01*
X41508809Y-66484523D01*
X41556428Y-66389285D01*
X41556428Y-66198809D01*
X41508809Y-66103571D01*
X41461190Y-66055952D01*
X41365952Y-66008333D01*
G04 #@! TO.C,D1*
X49911904Y-39325476D02*
X49111904Y-39325476D01*
X49111904Y-39135000D01*
X49150000Y-39020714D01*
X49226190Y-38944523D01*
X49302380Y-38906428D01*
X49454761Y-38868333D01*
X49569047Y-38868333D01*
X49721428Y-38906428D01*
X49797619Y-38944523D01*
X49873809Y-39020714D01*
X49911904Y-39135000D01*
X49911904Y-39325476D01*
X49911904Y-38106428D02*
X49911904Y-38563571D01*
X49911904Y-38335000D02*
X49111904Y-38335000D01*
X49226190Y-38411190D01*
X49302380Y-38487380D01*
X49340476Y-38563571D01*
G04 #@! TO.C,D2*
X60210773Y-46061904D02*
X60210773Y-45261904D01*
X60401250Y-45261904D01*
X60515535Y-45300000D01*
X60591726Y-45376190D01*
X60629821Y-45452380D01*
X60667916Y-45604761D01*
X60667916Y-45719047D01*
X60629821Y-45871428D01*
X60591726Y-45947619D01*
X60515535Y-46023809D01*
X60401250Y-46061904D01*
X60210773Y-46061904D01*
X60972678Y-45338095D02*
X61010773Y-45300000D01*
X61086964Y-45261904D01*
X61277440Y-45261904D01*
X61353630Y-45300000D01*
X61391726Y-45338095D01*
X61429821Y-45414285D01*
X61429821Y-45490476D01*
X61391726Y-45604761D01*
X60934583Y-46061904D01*
X61429821Y-46061904D01*
G04 #@! TO.C,D3*
X75609523Y-65111904D02*
X75609523Y-64311904D01*
X75800000Y-64311904D01*
X75914285Y-64350000D01*
X75990476Y-64426190D01*
X76028571Y-64502380D01*
X76066666Y-64654761D01*
X76066666Y-64769047D01*
X76028571Y-64921428D01*
X75990476Y-64997619D01*
X75914285Y-65073809D01*
X75800000Y-65111904D01*
X75609523Y-65111904D01*
X76333333Y-64311904D02*
X76828571Y-64311904D01*
X76561904Y-64616666D01*
X76676190Y-64616666D01*
X76752380Y-64654761D01*
X76790476Y-64692857D01*
X76828571Y-64769047D01*
X76828571Y-64959523D01*
X76790476Y-65035714D01*
X76752380Y-65073809D01*
X76676190Y-65111904D01*
X76447619Y-65111904D01*
X76371428Y-65073809D01*
X76333333Y-65035714D01*
G04 #@! TO.C,D4*
X107061904Y-38055476D02*
X106261904Y-38055476D01*
X106261904Y-37865000D01*
X106300000Y-37750714D01*
X106376190Y-37674523D01*
X106452380Y-37636428D01*
X106604761Y-37598333D01*
X106719047Y-37598333D01*
X106871428Y-37636428D01*
X106947619Y-37674523D01*
X107023809Y-37750714D01*
X107061904Y-37865000D01*
X107061904Y-38055476D01*
X106528571Y-36912619D02*
X107061904Y-36912619D01*
X106223809Y-37103095D02*
X106795238Y-37293571D01*
X106795238Y-36798333D01*
G04 #@! TO.C,D5*
X126111904Y-38055476D02*
X125311904Y-38055476D01*
X125311904Y-37865000D01*
X125350000Y-37750714D01*
X125426190Y-37674523D01*
X125502380Y-37636428D01*
X125654761Y-37598333D01*
X125769047Y-37598333D01*
X125921428Y-37636428D01*
X125997619Y-37674523D01*
X126073809Y-37750714D01*
X126111904Y-37865000D01*
X126111904Y-38055476D01*
X125311904Y-36874523D02*
X125311904Y-37255476D01*
X125692857Y-37293571D01*
X125654761Y-37255476D01*
X125616666Y-37179285D01*
X125616666Y-36988809D01*
X125654761Y-36912619D01*
X125692857Y-36874523D01*
X125769047Y-36836428D01*
X125959523Y-36836428D01*
X126035714Y-36874523D01*
X126073809Y-36912619D01*
X126111904Y-36988809D01*
X126111904Y-37179285D01*
X126073809Y-37255476D01*
X126035714Y-37293571D01*
G04 #@! TO.C,D6*
X145161904Y-38055476D02*
X144361904Y-38055476D01*
X144361904Y-37865000D01*
X144400000Y-37750714D01*
X144476190Y-37674523D01*
X144552380Y-37636428D01*
X144704761Y-37598333D01*
X144819047Y-37598333D01*
X144971428Y-37636428D01*
X145047619Y-37674523D01*
X145123809Y-37750714D01*
X145161904Y-37865000D01*
X145161904Y-38055476D01*
X144361904Y-36912619D02*
X144361904Y-37065000D01*
X144400000Y-37141190D01*
X144438095Y-37179285D01*
X144552380Y-37255476D01*
X144704761Y-37293571D01*
X145009523Y-37293571D01*
X145085714Y-37255476D01*
X145123809Y-37217380D01*
X145161904Y-37141190D01*
X145161904Y-36988809D01*
X145123809Y-36912619D01*
X145085714Y-36874523D01*
X145009523Y-36836428D01*
X144819047Y-36836428D01*
X144742857Y-36874523D01*
X144704761Y-36912619D01*
X144666666Y-36988809D01*
X144666666Y-37141190D01*
X144704761Y-37217380D01*
X144742857Y-37255476D01*
X144819047Y-37293571D01*
G04 #@! TO.C,D7*
X164211904Y-38055476D02*
X163411904Y-38055476D01*
X163411904Y-37865000D01*
X163450000Y-37750714D01*
X163526190Y-37674523D01*
X163602380Y-37636428D01*
X163754761Y-37598333D01*
X163869047Y-37598333D01*
X164021428Y-37636428D01*
X164097619Y-37674523D01*
X164173809Y-37750714D01*
X164211904Y-37865000D01*
X164211904Y-38055476D01*
X163411904Y-37331666D02*
X163411904Y-36798333D01*
X164211904Y-37141190D01*
G04 #@! TO.C,D8*
X183261904Y-38055476D02*
X182461904Y-38055476D01*
X182461904Y-37865000D01*
X182500000Y-37750714D01*
X182576190Y-37674523D01*
X182652380Y-37636428D01*
X182804761Y-37598333D01*
X182919047Y-37598333D01*
X183071428Y-37636428D01*
X183147619Y-37674523D01*
X183223809Y-37750714D01*
X183261904Y-37865000D01*
X183261904Y-38055476D01*
X182804761Y-37141190D02*
X182766666Y-37217380D01*
X182728571Y-37255476D01*
X182652380Y-37293571D01*
X182614285Y-37293571D01*
X182538095Y-37255476D01*
X182500000Y-37217380D01*
X182461904Y-37141190D01*
X182461904Y-36988809D01*
X182500000Y-36912619D01*
X182538095Y-36874523D01*
X182614285Y-36836428D01*
X182652380Y-36836428D01*
X182728571Y-36874523D01*
X182766666Y-36912619D01*
X182804761Y-36988809D01*
X182804761Y-37141190D01*
X182842857Y-37217380D01*
X182880952Y-37255476D01*
X182957142Y-37293571D01*
X183109523Y-37293571D01*
X183185714Y-37255476D01*
X183223809Y-37217380D01*
X183261904Y-37141190D01*
X183261904Y-36988809D01*
X183223809Y-36912619D01*
X183185714Y-36874523D01*
X183109523Y-36836428D01*
X182957142Y-36836428D01*
X182880952Y-36874523D01*
X182842857Y-36912619D01*
X182804761Y-36988809D01*
G04 #@! TO.C,D9*
X202311904Y-38055476D02*
X201511904Y-38055476D01*
X201511904Y-37865000D01*
X201550000Y-37750714D01*
X201626190Y-37674523D01*
X201702380Y-37636428D01*
X201854761Y-37598333D01*
X201969047Y-37598333D01*
X202121428Y-37636428D01*
X202197619Y-37674523D01*
X202273809Y-37750714D01*
X202311904Y-37865000D01*
X202311904Y-38055476D01*
X202311904Y-37217380D02*
X202311904Y-37065000D01*
X202273809Y-36988809D01*
X202235714Y-36950714D01*
X202121428Y-36874523D01*
X201969047Y-36836428D01*
X201664285Y-36836428D01*
X201588095Y-36874523D01*
X201550000Y-36912619D01*
X201511904Y-36988809D01*
X201511904Y-37141190D01*
X201550000Y-37217380D01*
X201588095Y-37255476D01*
X201664285Y-37293571D01*
X201854761Y-37293571D01*
X201930952Y-37255476D01*
X201969047Y-37217380D01*
X202007142Y-37141190D01*
X202007142Y-36988809D01*
X201969047Y-36912619D01*
X201930952Y-36874523D01*
X201854761Y-36836428D01*
G04 #@! TO.C,D10*
X221361904Y-38436428D02*
X220561904Y-38436428D01*
X220561904Y-38245952D01*
X220600000Y-38131666D01*
X220676190Y-38055476D01*
X220752380Y-38017380D01*
X220904761Y-37979285D01*
X221019047Y-37979285D01*
X221171428Y-38017380D01*
X221247619Y-38055476D01*
X221323809Y-38131666D01*
X221361904Y-38245952D01*
X221361904Y-38436428D01*
X221361904Y-37217380D02*
X221361904Y-37674523D01*
X221361904Y-37445952D02*
X220561904Y-37445952D01*
X220676190Y-37522142D01*
X220752380Y-37598333D01*
X220790476Y-37674523D01*
X220561904Y-36722142D02*
X220561904Y-36645952D01*
X220600000Y-36569761D01*
X220638095Y-36531666D01*
X220714285Y-36493571D01*
X220866666Y-36455476D01*
X221057142Y-36455476D01*
X221209523Y-36493571D01*
X221285714Y-36531666D01*
X221323809Y-36569761D01*
X221361904Y-36645952D01*
X221361904Y-36722142D01*
X221323809Y-36798333D01*
X221285714Y-36836428D01*
X221209523Y-36874523D01*
X221057142Y-36912619D01*
X220866666Y-36912619D01*
X220714285Y-36874523D01*
X220638095Y-36836428D01*
X220600000Y-36798333D01*
X220561904Y-36722142D01*
G04 #@! TO.C,D11*
X240411904Y-38436428D02*
X239611904Y-38436428D01*
X239611904Y-38245952D01*
X239650000Y-38131666D01*
X239726190Y-38055476D01*
X239802380Y-38017380D01*
X239954761Y-37979285D01*
X240069047Y-37979285D01*
X240221428Y-38017380D01*
X240297619Y-38055476D01*
X240373809Y-38131666D01*
X240411904Y-38245952D01*
X240411904Y-38436428D01*
X240411904Y-37217380D02*
X240411904Y-37674523D01*
X240411904Y-37445952D02*
X239611904Y-37445952D01*
X239726190Y-37522142D01*
X239802380Y-37598333D01*
X239840476Y-37674523D01*
X240411904Y-36455476D02*
X240411904Y-36912619D01*
X240411904Y-36684047D02*
X239611904Y-36684047D01*
X239726190Y-36760238D01*
X239802380Y-36836428D01*
X239840476Y-36912619D01*
G04 #@! TO.C,D12*
X246678571Y-46061904D02*
X246678571Y-45261904D01*
X246869047Y-45261904D01*
X246983333Y-45300000D01*
X247059523Y-45376190D01*
X247097619Y-45452380D01*
X247135714Y-45604761D01*
X247135714Y-45719047D01*
X247097619Y-45871428D01*
X247059523Y-45947619D01*
X246983333Y-46023809D01*
X246869047Y-46061904D01*
X246678571Y-46061904D01*
X247897619Y-46061904D02*
X247440476Y-46061904D01*
X247669047Y-46061904D02*
X247669047Y-45261904D01*
X247592857Y-45376190D01*
X247516666Y-45452380D01*
X247440476Y-45490476D01*
X248202380Y-45338095D02*
X248240476Y-45300000D01*
X248316666Y-45261904D01*
X248507142Y-45261904D01*
X248583333Y-45300000D01*
X248621428Y-45338095D01*
X248659523Y-45414285D01*
X248659523Y-45490476D01*
X248621428Y-45604761D01*
X248164285Y-46061904D01*
X248659523Y-46061904D01*
G04 #@! TO.C,D13*
X49911904Y-58756428D02*
X49111904Y-58756428D01*
X49111904Y-58565952D01*
X49150000Y-58451666D01*
X49226190Y-58375476D01*
X49302380Y-58337380D01*
X49454761Y-58299285D01*
X49569047Y-58299285D01*
X49721428Y-58337380D01*
X49797619Y-58375476D01*
X49873809Y-58451666D01*
X49911904Y-58565952D01*
X49911904Y-58756428D01*
X49911904Y-57537380D02*
X49911904Y-57994523D01*
X49911904Y-57765952D02*
X49111904Y-57765952D01*
X49226190Y-57842142D01*
X49302380Y-57918333D01*
X49340476Y-57994523D01*
X49111904Y-57270714D02*
X49111904Y-56775476D01*
X49416666Y-57042142D01*
X49416666Y-56927857D01*
X49454761Y-56851666D01*
X49492857Y-56813571D01*
X49569047Y-56775476D01*
X49759523Y-56775476D01*
X49835714Y-56813571D01*
X49873809Y-56851666D01*
X49911904Y-56927857D01*
X49911904Y-57156428D01*
X49873809Y-57232619D01*
X49835714Y-57270714D01*
G04 #@! TO.C,D14*
X59829821Y-65111904D02*
X59829821Y-64311904D01*
X60020297Y-64311904D01*
X60134583Y-64350000D01*
X60210773Y-64426190D01*
X60248869Y-64502380D01*
X60286964Y-64654761D01*
X60286964Y-64769047D01*
X60248869Y-64921428D01*
X60210773Y-64997619D01*
X60134583Y-65073809D01*
X60020297Y-65111904D01*
X59829821Y-65111904D01*
X61048869Y-65111904D02*
X60591726Y-65111904D01*
X60820297Y-65111904D02*
X60820297Y-64311904D01*
X60744107Y-64426190D01*
X60667916Y-64502380D01*
X60591726Y-64540476D01*
X61734583Y-64578571D02*
X61734583Y-65111904D01*
X61544107Y-64273809D02*
X61353630Y-64845238D01*
X61848869Y-64845238D01*
G04 #@! TO.C,D15*
X93643571Y-65111904D02*
X93643571Y-64311904D01*
X93834047Y-64311904D01*
X93948333Y-64350000D01*
X94024523Y-64426190D01*
X94062619Y-64502380D01*
X94100714Y-64654761D01*
X94100714Y-64769047D01*
X94062619Y-64921428D01*
X94024523Y-64997619D01*
X93948333Y-65073809D01*
X93834047Y-65111904D01*
X93643571Y-65111904D01*
X94862619Y-65111904D02*
X94405476Y-65111904D01*
X94634047Y-65111904D02*
X94634047Y-64311904D01*
X94557857Y-64426190D01*
X94481666Y-64502380D01*
X94405476Y-64540476D01*
X95586428Y-64311904D02*
X95205476Y-64311904D01*
X95167380Y-64692857D01*
X95205476Y-64654761D01*
X95281666Y-64616666D01*
X95472142Y-64616666D01*
X95548333Y-64654761D01*
X95586428Y-64692857D01*
X95624523Y-64769047D01*
X95624523Y-64959523D01*
X95586428Y-65035714D01*
X95548333Y-65073809D01*
X95472142Y-65111904D01*
X95281666Y-65111904D01*
X95205476Y-65073809D01*
X95167380Y-65035714D01*
G04 #@! TO.C,D16*
X107061904Y-57396428D02*
X106261904Y-57396428D01*
X106261904Y-57205952D01*
X106300000Y-57091666D01*
X106376190Y-57015476D01*
X106452380Y-56977380D01*
X106604761Y-56939285D01*
X106719047Y-56939285D01*
X106871428Y-56977380D01*
X106947619Y-57015476D01*
X107023809Y-57091666D01*
X107061904Y-57205952D01*
X107061904Y-57396428D01*
X107061904Y-56177380D02*
X107061904Y-56634523D01*
X107061904Y-56405952D02*
X106261904Y-56405952D01*
X106376190Y-56482142D01*
X106452380Y-56558333D01*
X106490476Y-56634523D01*
X106261904Y-55491666D02*
X106261904Y-55644047D01*
X106300000Y-55720238D01*
X106338095Y-55758333D01*
X106452380Y-55834523D01*
X106604761Y-55872619D01*
X106909523Y-55872619D01*
X106985714Y-55834523D01*
X107023809Y-55796428D01*
X107061904Y-55720238D01*
X107061904Y-55567857D01*
X107023809Y-55491666D01*
X106985714Y-55453571D01*
X106909523Y-55415476D01*
X106719047Y-55415476D01*
X106642857Y-55453571D01*
X106604761Y-55491666D01*
X106566666Y-55567857D01*
X106566666Y-55720238D01*
X106604761Y-55796428D01*
X106642857Y-55834523D01*
X106719047Y-55872619D01*
G04 #@! TO.C,D17*
X126111904Y-57396428D02*
X125311904Y-57396428D01*
X125311904Y-57205952D01*
X125350000Y-57091666D01*
X125426190Y-57015476D01*
X125502380Y-56977380D01*
X125654761Y-56939285D01*
X125769047Y-56939285D01*
X125921428Y-56977380D01*
X125997619Y-57015476D01*
X126073809Y-57091666D01*
X126111904Y-57205952D01*
X126111904Y-57396428D01*
X126111904Y-56177380D02*
X126111904Y-56634523D01*
X126111904Y-56405952D02*
X125311904Y-56405952D01*
X125426190Y-56482142D01*
X125502380Y-56558333D01*
X125540476Y-56634523D01*
X125311904Y-55910714D02*
X125311904Y-55377380D01*
X126111904Y-55720238D01*
G04 #@! TO.C,D18*
X145161904Y-57396428D02*
X144361904Y-57396428D01*
X144361904Y-57205952D01*
X144400000Y-57091666D01*
X144476190Y-57015476D01*
X144552380Y-56977380D01*
X144704761Y-56939285D01*
X144819047Y-56939285D01*
X144971428Y-56977380D01*
X145047619Y-57015476D01*
X145123809Y-57091666D01*
X145161904Y-57205952D01*
X145161904Y-57396428D01*
X145161904Y-56177380D02*
X145161904Y-56634523D01*
X145161904Y-56405952D02*
X144361904Y-56405952D01*
X144476190Y-56482142D01*
X144552380Y-56558333D01*
X144590476Y-56634523D01*
X144704761Y-55720238D02*
X144666666Y-55796428D01*
X144628571Y-55834523D01*
X144552380Y-55872619D01*
X144514285Y-55872619D01*
X144438095Y-55834523D01*
X144400000Y-55796428D01*
X144361904Y-55720238D01*
X144361904Y-55567857D01*
X144400000Y-55491666D01*
X144438095Y-55453571D01*
X144514285Y-55415476D01*
X144552380Y-55415476D01*
X144628571Y-55453571D01*
X144666666Y-55491666D01*
X144704761Y-55567857D01*
X144704761Y-55720238D01*
X144742857Y-55796428D01*
X144780952Y-55834523D01*
X144857142Y-55872619D01*
X145009523Y-55872619D01*
X145085714Y-55834523D01*
X145123809Y-55796428D01*
X145161904Y-55720238D01*
X145161904Y-55567857D01*
X145123809Y-55491666D01*
X145085714Y-55453571D01*
X145009523Y-55415476D01*
X144857142Y-55415476D01*
X144780952Y-55453571D01*
X144742857Y-55491666D01*
X144704761Y-55567857D01*
G04 #@! TO.C,D19*
X164211904Y-57396428D02*
X163411904Y-57396428D01*
X163411904Y-57205952D01*
X163450000Y-57091666D01*
X163526190Y-57015476D01*
X163602380Y-56977380D01*
X163754761Y-56939285D01*
X163869047Y-56939285D01*
X164021428Y-56977380D01*
X164097619Y-57015476D01*
X164173809Y-57091666D01*
X164211904Y-57205952D01*
X164211904Y-57396428D01*
X164211904Y-56177380D02*
X164211904Y-56634523D01*
X164211904Y-56405952D02*
X163411904Y-56405952D01*
X163526190Y-56482142D01*
X163602380Y-56558333D01*
X163640476Y-56634523D01*
X164211904Y-55796428D02*
X164211904Y-55644047D01*
X164173809Y-55567857D01*
X164135714Y-55529761D01*
X164021428Y-55453571D01*
X163869047Y-55415476D01*
X163564285Y-55415476D01*
X163488095Y-55453571D01*
X163450000Y-55491666D01*
X163411904Y-55567857D01*
X163411904Y-55720238D01*
X163450000Y-55796428D01*
X163488095Y-55834523D01*
X163564285Y-55872619D01*
X163754761Y-55872619D01*
X163830952Y-55834523D01*
X163869047Y-55796428D01*
X163907142Y-55720238D01*
X163907142Y-55567857D01*
X163869047Y-55491666D01*
X163830952Y-55453571D01*
X163754761Y-55415476D01*
G04 #@! TO.C,D20*
X183261904Y-57486428D02*
X182461904Y-57486428D01*
X182461904Y-57295952D01*
X182500000Y-57181666D01*
X182576190Y-57105476D01*
X182652380Y-57067380D01*
X182804761Y-57029285D01*
X182919047Y-57029285D01*
X183071428Y-57067380D01*
X183147619Y-57105476D01*
X183223809Y-57181666D01*
X183261904Y-57295952D01*
X183261904Y-57486428D01*
X182538095Y-56724523D02*
X182500000Y-56686428D01*
X182461904Y-56610238D01*
X182461904Y-56419761D01*
X182500000Y-56343571D01*
X182538095Y-56305476D01*
X182614285Y-56267380D01*
X182690476Y-56267380D01*
X182804761Y-56305476D01*
X183261904Y-56762619D01*
X183261904Y-56267380D01*
X182461904Y-55772142D02*
X182461904Y-55695952D01*
X182500000Y-55619761D01*
X182538095Y-55581666D01*
X182614285Y-55543571D01*
X182766666Y-55505476D01*
X182957142Y-55505476D01*
X183109523Y-55543571D01*
X183185714Y-55581666D01*
X183223809Y-55619761D01*
X183261904Y-55695952D01*
X183261904Y-55772142D01*
X183223809Y-55848333D01*
X183185714Y-55886428D01*
X183109523Y-55924523D01*
X182957142Y-55962619D01*
X182766666Y-55962619D01*
X182614285Y-55924523D01*
X182538095Y-55886428D01*
X182500000Y-55848333D01*
X182461904Y-55772142D01*
G04 #@! TO.C,D21*
X202311904Y-57486428D02*
X201511904Y-57486428D01*
X201511904Y-57295952D01*
X201550000Y-57181666D01*
X201626190Y-57105476D01*
X201702380Y-57067380D01*
X201854761Y-57029285D01*
X201969047Y-57029285D01*
X202121428Y-57067380D01*
X202197619Y-57105476D01*
X202273809Y-57181666D01*
X202311904Y-57295952D01*
X202311904Y-57486428D01*
X201588095Y-56724523D02*
X201550000Y-56686428D01*
X201511904Y-56610238D01*
X201511904Y-56419761D01*
X201550000Y-56343571D01*
X201588095Y-56305476D01*
X201664285Y-56267380D01*
X201740476Y-56267380D01*
X201854761Y-56305476D01*
X202311904Y-56762619D01*
X202311904Y-56267380D01*
X202311904Y-55505476D02*
X202311904Y-55962619D01*
X202311904Y-55734047D02*
X201511904Y-55734047D01*
X201626190Y-55810238D01*
X201702380Y-55886428D01*
X201740476Y-55962619D01*
G04 #@! TO.C,D22*
X221361904Y-57486428D02*
X220561904Y-57486428D01*
X220561904Y-57295952D01*
X220600000Y-57181666D01*
X220676190Y-57105476D01*
X220752380Y-57067380D01*
X220904761Y-57029285D01*
X221019047Y-57029285D01*
X221171428Y-57067380D01*
X221247619Y-57105476D01*
X221323809Y-57181666D01*
X221361904Y-57295952D01*
X221361904Y-57486428D01*
X220638095Y-56724523D02*
X220600000Y-56686428D01*
X220561904Y-56610238D01*
X220561904Y-56419761D01*
X220600000Y-56343571D01*
X220638095Y-56305476D01*
X220714285Y-56267380D01*
X220790476Y-56267380D01*
X220904761Y-56305476D01*
X221361904Y-56762619D01*
X221361904Y-56267380D01*
X220638095Y-55962619D02*
X220600000Y-55924523D01*
X220561904Y-55848333D01*
X220561904Y-55657857D01*
X220600000Y-55581666D01*
X220638095Y-55543571D01*
X220714285Y-55505476D01*
X220790476Y-55505476D01*
X220904761Y-55543571D01*
X221361904Y-56000714D01*
X221361904Y-55505476D01*
G04 #@! TO.C,D23*
X240411904Y-57486428D02*
X239611904Y-57486428D01*
X239611904Y-57295952D01*
X239650000Y-57181666D01*
X239726190Y-57105476D01*
X239802380Y-57067380D01*
X239954761Y-57029285D01*
X240069047Y-57029285D01*
X240221428Y-57067380D01*
X240297619Y-57105476D01*
X240373809Y-57181666D01*
X240411904Y-57295952D01*
X240411904Y-57486428D01*
X239688095Y-56724523D02*
X239650000Y-56686428D01*
X239611904Y-56610238D01*
X239611904Y-56419761D01*
X239650000Y-56343571D01*
X239688095Y-56305476D01*
X239764285Y-56267380D01*
X239840476Y-56267380D01*
X239954761Y-56305476D01*
X240411904Y-56762619D01*
X240411904Y-56267380D01*
X239611904Y-56000714D02*
X239611904Y-55505476D01*
X239916666Y-55772142D01*
X239916666Y-55657857D01*
X239954761Y-55581666D01*
X239992857Y-55543571D01*
X240069047Y-55505476D01*
X240259523Y-55505476D01*
X240335714Y-55543571D01*
X240373809Y-55581666D01*
X240411904Y-55657857D01*
X240411904Y-55886428D01*
X240373809Y-55962619D01*
X240335714Y-56000714D01*
G04 #@! TO.C,D24*
X246678571Y-65111904D02*
X246678571Y-64311904D01*
X246869047Y-64311904D01*
X246983333Y-64350000D01*
X247059523Y-64426190D01*
X247097619Y-64502380D01*
X247135714Y-64654761D01*
X247135714Y-64769047D01*
X247097619Y-64921428D01*
X247059523Y-64997619D01*
X246983333Y-65073809D01*
X246869047Y-65111904D01*
X246678571Y-65111904D01*
X247440476Y-64388095D02*
X247478571Y-64350000D01*
X247554761Y-64311904D01*
X247745238Y-64311904D01*
X247821428Y-64350000D01*
X247859523Y-64388095D01*
X247897619Y-64464285D01*
X247897619Y-64540476D01*
X247859523Y-64654761D01*
X247402380Y-65111904D01*
X247897619Y-65111904D01*
X248583333Y-64578571D02*
X248583333Y-65111904D01*
X248392857Y-64273809D02*
X248202380Y-64845238D01*
X248697619Y-64845238D01*
G04 #@! TO.C,D25*
X49911904Y-76536428D02*
X49111904Y-76536428D01*
X49111904Y-76345952D01*
X49150000Y-76231666D01*
X49226190Y-76155476D01*
X49302380Y-76117380D01*
X49454761Y-76079285D01*
X49569047Y-76079285D01*
X49721428Y-76117380D01*
X49797619Y-76155476D01*
X49873809Y-76231666D01*
X49911904Y-76345952D01*
X49911904Y-76536428D01*
X49188095Y-75774523D02*
X49150000Y-75736428D01*
X49111904Y-75660238D01*
X49111904Y-75469761D01*
X49150000Y-75393571D01*
X49188095Y-75355476D01*
X49264285Y-75317380D01*
X49340476Y-75317380D01*
X49454761Y-75355476D01*
X49911904Y-75812619D01*
X49911904Y-75317380D01*
X49111904Y-74593571D02*
X49111904Y-74974523D01*
X49492857Y-75012619D01*
X49454761Y-74974523D01*
X49416666Y-74898333D01*
X49416666Y-74707857D01*
X49454761Y-74631666D01*
X49492857Y-74593571D01*
X49569047Y-74555476D01*
X49759523Y-74555476D01*
X49835714Y-74593571D01*
X49873809Y-74631666D01*
X49911904Y-74707857D01*
X49911904Y-74898333D01*
X49873809Y-74974523D01*
X49835714Y-75012619D01*
G04 #@! TO.C,D26*
X68961904Y-76536428D02*
X68161904Y-76536428D01*
X68161904Y-76345952D01*
X68200000Y-76231666D01*
X68276190Y-76155476D01*
X68352380Y-76117380D01*
X68504761Y-76079285D01*
X68619047Y-76079285D01*
X68771428Y-76117380D01*
X68847619Y-76155476D01*
X68923809Y-76231666D01*
X68961904Y-76345952D01*
X68961904Y-76536428D01*
X68238095Y-75774523D02*
X68200000Y-75736428D01*
X68161904Y-75660238D01*
X68161904Y-75469761D01*
X68200000Y-75393571D01*
X68238095Y-75355476D01*
X68314285Y-75317380D01*
X68390476Y-75317380D01*
X68504761Y-75355476D01*
X68961904Y-75812619D01*
X68961904Y-75317380D01*
X68161904Y-74631666D02*
X68161904Y-74784047D01*
X68200000Y-74860238D01*
X68238095Y-74898333D01*
X68352380Y-74974523D01*
X68504761Y-75012619D01*
X68809523Y-75012619D01*
X68885714Y-74974523D01*
X68923809Y-74936428D01*
X68961904Y-74860238D01*
X68961904Y-74707857D01*
X68923809Y-74631666D01*
X68885714Y-74593571D01*
X68809523Y-74555476D01*
X68619047Y-74555476D01*
X68542857Y-74593571D01*
X68504761Y-74631666D01*
X68466666Y-74707857D01*
X68466666Y-74860238D01*
X68504761Y-74936428D01*
X68542857Y-74974523D01*
X68619047Y-75012619D01*
G04 #@! TO.C,D27*
X88011904Y-76536428D02*
X87211904Y-76536428D01*
X87211904Y-76345952D01*
X87250000Y-76231666D01*
X87326190Y-76155476D01*
X87402380Y-76117380D01*
X87554761Y-76079285D01*
X87669047Y-76079285D01*
X87821428Y-76117380D01*
X87897619Y-76155476D01*
X87973809Y-76231666D01*
X88011904Y-76345952D01*
X88011904Y-76536428D01*
X87288095Y-75774523D02*
X87250000Y-75736428D01*
X87211904Y-75660238D01*
X87211904Y-75469761D01*
X87250000Y-75393571D01*
X87288095Y-75355476D01*
X87364285Y-75317380D01*
X87440476Y-75317380D01*
X87554761Y-75355476D01*
X88011904Y-75812619D01*
X88011904Y-75317380D01*
X87211904Y-75050714D02*
X87211904Y-74517380D01*
X88011904Y-74860238D01*
G04 #@! TO.C,D28*
X107061904Y-76536428D02*
X106261904Y-76536428D01*
X106261904Y-76345952D01*
X106300000Y-76231666D01*
X106376190Y-76155476D01*
X106452380Y-76117380D01*
X106604761Y-76079285D01*
X106719047Y-76079285D01*
X106871428Y-76117380D01*
X106947619Y-76155476D01*
X107023809Y-76231666D01*
X107061904Y-76345952D01*
X107061904Y-76536428D01*
X106338095Y-75774523D02*
X106300000Y-75736428D01*
X106261904Y-75660238D01*
X106261904Y-75469761D01*
X106300000Y-75393571D01*
X106338095Y-75355476D01*
X106414285Y-75317380D01*
X106490476Y-75317380D01*
X106604761Y-75355476D01*
X107061904Y-75812619D01*
X107061904Y-75317380D01*
X106604761Y-74860238D02*
X106566666Y-74936428D01*
X106528571Y-74974523D01*
X106452380Y-75012619D01*
X106414285Y-75012619D01*
X106338095Y-74974523D01*
X106300000Y-74936428D01*
X106261904Y-74860238D01*
X106261904Y-74707857D01*
X106300000Y-74631666D01*
X106338095Y-74593571D01*
X106414285Y-74555476D01*
X106452380Y-74555476D01*
X106528571Y-74593571D01*
X106566666Y-74631666D01*
X106604761Y-74707857D01*
X106604761Y-74860238D01*
X106642857Y-74936428D01*
X106680952Y-74974523D01*
X106757142Y-75012619D01*
X106909523Y-75012619D01*
X106985714Y-74974523D01*
X107023809Y-74936428D01*
X107061904Y-74860238D01*
X107061904Y-74707857D01*
X107023809Y-74631666D01*
X106985714Y-74593571D01*
X106909523Y-74555476D01*
X106757142Y-74555476D01*
X106680952Y-74593571D01*
X106642857Y-74631666D01*
X106604761Y-74707857D01*
G04 #@! TO.C,D29*
X126111904Y-76536428D02*
X125311904Y-76536428D01*
X125311904Y-76345952D01*
X125350000Y-76231666D01*
X125426190Y-76155476D01*
X125502380Y-76117380D01*
X125654761Y-76079285D01*
X125769047Y-76079285D01*
X125921428Y-76117380D01*
X125997619Y-76155476D01*
X126073809Y-76231666D01*
X126111904Y-76345952D01*
X126111904Y-76536428D01*
X125388095Y-75774523D02*
X125350000Y-75736428D01*
X125311904Y-75660238D01*
X125311904Y-75469761D01*
X125350000Y-75393571D01*
X125388095Y-75355476D01*
X125464285Y-75317380D01*
X125540476Y-75317380D01*
X125654761Y-75355476D01*
X126111904Y-75812619D01*
X126111904Y-75317380D01*
X126111904Y-74936428D02*
X126111904Y-74784047D01*
X126073809Y-74707857D01*
X126035714Y-74669761D01*
X125921428Y-74593571D01*
X125769047Y-74555476D01*
X125464285Y-74555476D01*
X125388095Y-74593571D01*
X125350000Y-74631666D01*
X125311904Y-74707857D01*
X125311904Y-74860238D01*
X125350000Y-74936428D01*
X125388095Y-74974523D01*
X125464285Y-75012619D01*
X125654761Y-75012619D01*
X125730952Y-74974523D01*
X125769047Y-74936428D01*
X125807142Y-74860238D01*
X125807142Y-74707857D01*
X125769047Y-74631666D01*
X125730952Y-74593571D01*
X125654761Y-74555476D01*
G04 #@! TO.C,D30*
X145161904Y-76536428D02*
X144361904Y-76536428D01*
X144361904Y-76345952D01*
X144400000Y-76231666D01*
X144476190Y-76155476D01*
X144552380Y-76117380D01*
X144704761Y-76079285D01*
X144819047Y-76079285D01*
X144971428Y-76117380D01*
X145047619Y-76155476D01*
X145123809Y-76231666D01*
X145161904Y-76345952D01*
X145161904Y-76536428D01*
X144361904Y-75812619D02*
X144361904Y-75317380D01*
X144666666Y-75584047D01*
X144666666Y-75469761D01*
X144704761Y-75393571D01*
X144742857Y-75355476D01*
X144819047Y-75317380D01*
X145009523Y-75317380D01*
X145085714Y-75355476D01*
X145123809Y-75393571D01*
X145161904Y-75469761D01*
X145161904Y-75698333D01*
X145123809Y-75774523D01*
X145085714Y-75812619D01*
X144361904Y-74822142D02*
X144361904Y-74745952D01*
X144400000Y-74669761D01*
X144438095Y-74631666D01*
X144514285Y-74593571D01*
X144666666Y-74555476D01*
X144857142Y-74555476D01*
X145009523Y-74593571D01*
X145085714Y-74631666D01*
X145123809Y-74669761D01*
X145161904Y-74745952D01*
X145161904Y-74822142D01*
X145123809Y-74898333D01*
X145085714Y-74936428D01*
X145009523Y-74974523D01*
X144857142Y-75012619D01*
X144666666Y-75012619D01*
X144514285Y-74974523D01*
X144438095Y-74936428D01*
X144400000Y-74898333D01*
X144361904Y-74822142D01*
G04 #@! TO.C,D31*
X164211904Y-76536428D02*
X163411904Y-76536428D01*
X163411904Y-76345952D01*
X163450000Y-76231666D01*
X163526190Y-76155476D01*
X163602380Y-76117380D01*
X163754761Y-76079285D01*
X163869047Y-76079285D01*
X164021428Y-76117380D01*
X164097619Y-76155476D01*
X164173809Y-76231666D01*
X164211904Y-76345952D01*
X164211904Y-76536428D01*
X163411904Y-75812619D02*
X163411904Y-75317380D01*
X163716666Y-75584047D01*
X163716666Y-75469761D01*
X163754761Y-75393571D01*
X163792857Y-75355476D01*
X163869047Y-75317380D01*
X164059523Y-75317380D01*
X164135714Y-75355476D01*
X164173809Y-75393571D01*
X164211904Y-75469761D01*
X164211904Y-75698333D01*
X164173809Y-75774523D01*
X164135714Y-75812619D01*
X164211904Y-74555476D02*
X164211904Y-75012619D01*
X164211904Y-74784047D02*
X163411904Y-74784047D01*
X163526190Y-74860238D01*
X163602380Y-74936428D01*
X163640476Y-75012619D01*
G04 #@! TO.C,D32*
X183261904Y-76536428D02*
X182461904Y-76536428D01*
X182461904Y-76345952D01*
X182500000Y-76231666D01*
X182576190Y-76155476D01*
X182652380Y-76117380D01*
X182804761Y-76079285D01*
X182919047Y-76079285D01*
X183071428Y-76117380D01*
X183147619Y-76155476D01*
X183223809Y-76231666D01*
X183261904Y-76345952D01*
X183261904Y-76536428D01*
X182461904Y-75812619D02*
X182461904Y-75317380D01*
X182766666Y-75584047D01*
X182766666Y-75469761D01*
X182804761Y-75393571D01*
X182842857Y-75355476D01*
X182919047Y-75317380D01*
X183109523Y-75317380D01*
X183185714Y-75355476D01*
X183223809Y-75393571D01*
X183261904Y-75469761D01*
X183261904Y-75698333D01*
X183223809Y-75774523D01*
X183185714Y-75812619D01*
X182538095Y-75012619D02*
X182500000Y-74974523D01*
X182461904Y-74898333D01*
X182461904Y-74707857D01*
X182500000Y-74631666D01*
X182538095Y-74593571D01*
X182614285Y-74555476D01*
X182690476Y-74555476D01*
X182804761Y-74593571D01*
X183261904Y-75050714D01*
X183261904Y-74555476D01*
G04 #@! TO.C,D33*
X202311904Y-77081428D02*
X201511904Y-77081428D01*
X201511904Y-76890952D01*
X201550000Y-76776666D01*
X201626190Y-76700476D01*
X201702380Y-76662380D01*
X201854761Y-76624285D01*
X201969047Y-76624285D01*
X202121428Y-76662380D01*
X202197619Y-76700476D01*
X202273809Y-76776666D01*
X202311904Y-76890952D01*
X202311904Y-77081428D01*
X201511904Y-76357619D02*
X201511904Y-75862380D01*
X201816666Y-76129047D01*
X201816666Y-76014761D01*
X201854761Y-75938571D01*
X201892857Y-75900476D01*
X201969047Y-75862380D01*
X202159523Y-75862380D01*
X202235714Y-75900476D01*
X202273809Y-75938571D01*
X202311904Y-76014761D01*
X202311904Y-76243333D01*
X202273809Y-76319523D01*
X202235714Y-76357619D01*
X201511904Y-75595714D02*
X201511904Y-75100476D01*
X201816666Y-75367142D01*
X201816666Y-75252857D01*
X201854761Y-75176666D01*
X201892857Y-75138571D01*
X201969047Y-75100476D01*
X202159523Y-75100476D01*
X202235714Y-75138571D01*
X202273809Y-75176666D01*
X202311904Y-75252857D01*
X202311904Y-75481428D01*
X202273809Y-75557619D01*
X202235714Y-75595714D01*
G04 #@! TO.C,D34*
X221361904Y-77081428D02*
X220561904Y-77081428D01*
X220561904Y-76890952D01*
X220600000Y-76776666D01*
X220676190Y-76700476D01*
X220752380Y-76662380D01*
X220904761Y-76624285D01*
X221019047Y-76624285D01*
X221171428Y-76662380D01*
X221247619Y-76700476D01*
X221323809Y-76776666D01*
X221361904Y-76890952D01*
X221361904Y-77081428D01*
X220561904Y-76357619D02*
X220561904Y-75862380D01*
X220866666Y-76129047D01*
X220866666Y-76014761D01*
X220904761Y-75938571D01*
X220942857Y-75900476D01*
X221019047Y-75862380D01*
X221209523Y-75862380D01*
X221285714Y-75900476D01*
X221323809Y-75938571D01*
X221361904Y-76014761D01*
X221361904Y-76243333D01*
X221323809Y-76319523D01*
X221285714Y-76357619D01*
X220828571Y-75176666D02*
X221361904Y-75176666D01*
X220523809Y-75367142D02*
X221095238Y-75557619D01*
X221095238Y-75062380D01*
G04 #@! TO.C,D35*
X227628571Y-84161904D02*
X227628571Y-83361904D01*
X227819047Y-83361904D01*
X227933333Y-83400000D01*
X228009523Y-83476190D01*
X228047619Y-83552380D01*
X228085714Y-83704761D01*
X228085714Y-83819047D01*
X228047619Y-83971428D01*
X228009523Y-84047619D01*
X227933333Y-84123809D01*
X227819047Y-84161904D01*
X227628571Y-84161904D01*
X228352380Y-83361904D02*
X228847619Y-83361904D01*
X228580952Y-83666666D01*
X228695238Y-83666666D01*
X228771428Y-83704761D01*
X228809523Y-83742857D01*
X228847619Y-83819047D01*
X228847619Y-84009523D01*
X228809523Y-84085714D01*
X228771428Y-84123809D01*
X228695238Y-84161904D01*
X228466666Y-84161904D01*
X228390476Y-84123809D01*
X228352380Y-84085714D01*
X229571428Y-83361904D02*
X229190476Y-83361904D01*
X229152380Y-83742857D01*
X229190476Y-83704761D01*
X229266666Y-83666666D01*
X229457142Y-83666666D01*
X229533333Y-83704761D01*
X229571428Y-83742857D01*
X229609523Y-83819047D01*
X229609523Y-84009523D01*
X229571428Y-84085714D01*
X229533333Y-84123809D01*
X229457142Y-84161904D01*
X229266666Y-84161904D01*
X229190476Y-84123809D01*
X229152380Y-84085714D01*
G04 #@! TO.C,D36*
X240411904Y-77171428D02*
X239611904Y-77171428D01*
X239611904Y-76980952D01*
X239650000Y-76866666D01*
X239726190Y-76790476D01*
X239802380Y-76752380D01*
X239954761Y-76714285D01*
X240069047Y-76714285D01*
X240221428Y-76752380D01*
X240297619Y-76790476D01*
X240373809Y-76866666D01*
X240411904Y-76980952D01*
X240411904Y-77171428D01*
X239611904Y-76447619D02*
X239611904Y-75952380D01*
X239916666Y-76219047D01*
X239916666Y-76104761D01*
X239954761Y-76028571D01*
X239992857Y-75990476D01*
X240069047Y-75952380D01*
X240259523Y-75952380D01*
X240335714Y-75990476D01*
X240373809Y-76028571D01*
X240411904Y-76104761D01*
X240411904Y-76333333D01*
X240373809Y-76409523D01*
X240335714Y-76447619D01*
X239611904Y-75266666D02*
X239611904Y-75419047D01*
X239650000Y-75495238D01*
X239688095Y-75533333D01*
X239802380Y-75609523D01*
X239954761Y-75647619D01*
X240259523Y-75647619D01*
X240335714Y-75609523D01*
X240373809Y-75571428D01*
X240411904Y-75495238D01*
X240411904Y-75342857D01*
X240373809Y-75266666D01*
X240335714Y-75228571D01*
X240259523Y-75190476D01*
X240069047Y-75190476D01*
X239992857Y-75228571D01*
X239954761Y-75266666D01*
X239916666Y-75342857D01*
X239916666Y-75495238D01*
X239954761Y-75571428D01*
X239992857Y-75609523D01*
X240069047Y-75647619D01*
G04 #@! TO.C,D37*
X37128571Y-84161904D02*
X37128571Y-83361904D01*
X37319047Y-83361904D01*
X37433333Y-83400000D01*
X37509523Y-83476190D01*
X37547619Y-83552380D01*
X37585714Y-83704761D01*
X37585714Y-83819047D01*
X37547619Y-83971428D01*
X37509523Y-84047619D01*
X37433333Y-84123809D01*
X37319047Y-84161904D01*
X37128571Y-84161904D01*
X37852380Y-83361904D02*
X38347619Y-83361904D01*
X38080952Y-83666666D01*
X38195238Y-83666666D01*
X38271428Y-83704761D01*
X38309523Y-83742857D01*
X38347619Y-83819047D01*
X38347619Y-84009523D01*
X38309523Y-84085714D01*
X38271428Y-84123809D01*
X38195238Y-84161904D01*
X37966666Y-84161904D01*
X37890476Y-84123809D01*
X37852380Y-84085714D01*
X38614285Y-83361904D02*
X39147619Y-83361904D01*
X38804761Y-84161904D01*
G04 #@! TO.C,D38*
X49911904Y-95586428D02*
X49111904Y-95586428D01*
X49111904Y-95395952D01*
X49150000Y-95281666D01*
X49226190Y-95205476D01*
X49302380Y-95167380D01*
X49454761Y-95129285D01*
X49569047Y-95129285D01*
X49721428Y-95167380D01*
X49797619Y-95205476D01*
X49873809Y-95281666D01*
X49911904Y-95395952D01*
X49911904Y-95586428D01*
X49111904Y-94862619D02*
X49111904Y-94367380D01*
X49416666Y-94634047D01*
X49416666Y-94519761D01*
X49454761Y-94443571D01*
X49492857Y-94405476D01*
X49569047Y-94367380D01*
X49759523Y-94367380D01*
X49835714Y-94405476D01*
X49873809Y-94443571D01*
X49911904Y-94519761D01*
X49911904Y-94748333D01*
X49873809Y-94824523D01*
X49835714Y-94862619D01*
X49454761Y-93910238D02*
X49416666Y-93986428D01*
X49378571Y-94024523D01*
X49302380Y-94062619D01*
X49264285Y-94062619D01*
X49188095Y-94024523D01*
X49150000Y-93986428D01*
X49111904Y-93910238D01*
X49111904Y-93757857D01*
X49150000Y-93681666D01*
X49188095Y-93643571D01*
X49264285Y-93605476D01*
X49302380Y-93605476D01*
X49378571Y-93643571D01*
X49416666Y-93681666D01*
X49454761Y-93757857D01*
X49454761Y-93910238D01*
X49492857Y-93986428D01*
X49530952Y-94024523D01*
X49607142Y-94062619D01*
X49759523Y-94062619D01*
X49835714Y-94024523D01*
X49873809Y-93986428D01*
X49911904Y-93910238D01*
X49911904Y-93757857D01*
X49873809Y-93681666D01*
X49835714Y-93643571D01*
X49759523Y-93605476D01*
X49607142Y-93605476D01*
X49530952Y-93643571D01*
X49492857Y-93681666D01*
X49454761Y-93757857D01*
G04 #@! TO.C,D39*
X68961904Y-95586428D02*
X68161904Y-95586428D01*
X68161904Y-95395952D01*
X68200000Y-95281666D01*
X68276190Y-95205476D01*
X68352380Y-95167380D01*
X68504761Y-95129285D01*
X68619047Y-95129285D01*
X68771428Y-95167380D01*
X68847619Y-95205476D01*
X68923809Y-95281666D01*
X68961904Y-95395952D01*
X68961904Y-95586428D01*
X68161904Y-94862619D02*
X68161904Y-94367380D01*
X68466666Y-94634047D01*
X68466666Y-94519761D01*
X68504761Y-94443571D01*
X68542857Y-94405476D01*
X68619047Y-94367380D01*
X68809523Y-94367380D01*
X68885714Y-94405476D01*
X68923809Y-94443571D01*
X68961904Y-94519761D01*
X68961904Y-94748333D01*
X68923809Y-94824523D01*
X68885714Y-94862619D01*
X68961904Y-93986428D02*
X68961904Y-93834047D01*
X68923809Y-93757857D01*
X68885714Y-93719761D01*
X68771428Y-93643571D01*
X68619047Y-93605476D01*
X68314285Y-93605476D01*
X68238095Y-93643571D01*
X68200000Y-93681666D01*
X68161904Y-93757857D01*
X68161904Y-93910238D01*
X68200000Y-93986428D01*
X68238095Y-94024523D01*
X68314285Y-94062619D01*
X68504761Y-94062619D01*
X68580952Y-94024523D01*
X68619047Y-93986428D01*
X68657142Y-93910238D01*
X68657142Y-93757857D01*
X68619047Y-93681666D01*
X68580952Y-93643571D01*
X68504761Y-93605476D01*
G04 #@! TO.C,D40*
X88011904Y-95586428D02*
X87211904Y-95586428D01*
X87211904Y-95395952D01*
X87250000Y-95281666D01*
X87326190Y-95205476D01*
X87402380Y-95167380D01*
X87554761Y-95129285D01*
X87669047Y-95129285D01*
X87821428Y-95167380D01*
X87897619Y-95205476D01*
X87973809Y-95281666D01*
X88011904Y-95395952D01*
X88011904Y-95586428D01*
X87478571Y-94443571D02*
X88011904Y-94443571D01*
X87173809Y-94634047D02*
X87745238Y-94824523D01*
X87745238Y-94329285D01*
X87211904Y-93872142D02*
X87211904Y-93795952D01*
X87250000Y-93719761D01*
X87288095Y-93681666D01*
X87364285Y-93643571D01*
X87516666Y-93605476D01*
X87707142Y-93605476D01*
X87859523Y-93643571D01*
X87935714Y-93681666D01*
X87973809Y-93719761D01*
X88011904Y-93795952D01*
X88011904Y-93872142D01*
X87973809Y-93948333D01*
X87935714Y-93986428D01*
X87859523Y-94024523D01*
X87707142Y-94062619D01*
X87516666Y-94062619D01*
X87364285Y-94024523D01*
X87288095Y-93986428D01*
X87250000Y-93948333D01*
X87211904Y-93872142D01*
G04 #@! TO.C,D41*
X107061904Y-95586428D02*
X106261904Y-95586428D01*
X106261904Y-95395952D01*
X106300000Y-95281666D01*
X106376190Y-95205476D01*
X106452380Y-95167380D01*
X106604761Y-95129285D01*
X106719047Y-95129285D01*
X106871428Y-95167380D01*
X106947619Y-95205476D01*
X107023809Y-95281666D01*
X107061904Y-95395952D01*
X107061904Y-95586428D01*
X106528571Y-94443571D02*
X107061904Y-94443571D01*
X106223809Y-94634047D02*
X106795238Y-94824523D01*
X106795238Y-94329285D01*
X107061904Y-93605476D02*
X107061904Y-94062619D01*
X107061904Y-93834047D02*
X106261904Y-93834047D01*
X106376190Y-93910238D01*
X106452380Y-93986428D01*
X106490476Y-94062619D01*
G04 #@! TO.C,D42*
X126111904Y-95586428D02*
X125311904Y-95586428D01*
X125311904Y-95395952D01*
X125350000Y-95281666D01*
X125426190Y-95205476D01*
X125502380Y-95167380D01*
X125654761Y-95129285D01*
X125769047Y-95129285D01*
X125921428Y-95167380D01*
X125997619Y-95205476D01*
X126073809Y-95281666D01*
X126111904Y-95395952D01*
X126111904Y-95586428D01*
X125578571Y-94443571D02*
X126111904Y-94443571D01*
X125273809Y-94634047D02*
X125845238Y-94824523D01*
X125845238Y-94329285D01*
X125388095Y-94062619D02*
X125350000Y-94024523D01*
X125311904Y-93948333D01*
X125311904Y-93757857D01*
X125350000Y-93681666D01*
X125388095Y-93643571D01*
X125464285Y-93605476D01*
X125540476Y-93605476D01*
X125654761Y-93643571D01*
X126111904Y-94100714D01*
X126111904Y-93605476D01*
G04 #@! TO.C,D43*
X164211904Y-95586428D02*
X163411904Y-95586428D01*
X163411904Y-95395952D01*
X163450000Y-95281666D01*
X163526190Y-95205476D01*
X163602380Y-95167380D01*
X163754761Y-95129285D01*
X163869047Y-95129285D01*
X164021428Y-95167380D01*
X164097619Y-95205476D01*
X164173809Y-95281666D01*
X164211904Y-95395952D01*
X164211904Y-95586428D01*
X163678571Y-94443571D02*
X164211904Y-94443571D01*
X163373809Y-94634047D02*
X163945238Y-94824523D01*
X163945238Y-94329285D01*
X163411904Y-94100714D02*
X163411904Y-93605476D01*
X163716666Y-93872142D01*
X163716666Y-93757857D01*
X163754761Y-93681666D01*
X163792857Y-93643571D01*
X163869047Y-93605476D01*
X164059523Y-93605476D01*
X164135714Y-93643571D01*
X164173809Y-93681666D01*
X164211904Y-93757857D01*
X164211904Y-93986428D01*
X164173809Y-94062619D01*
X164135714Y-94100714D01*
G04 #@! TO.C,D44*
X183261904Y-95586428D02*
X182461904Y-95586428D01*
X182461904Y-95395952D01*
X182500000Y-95281666D01*
X182576190Y-95205476D01*
X182652380Y-95167380D01*
X182804761Y-95129285D01*
X182919047Y-95129285D01*
X183071428Y-95167380D01*
X183147619Y-95205476D01*
X183223809Y-95281666D01*
X183261904Y-95395952D01*
X183261904Y-95586428D01*
X182728571Y-94443571D02*
X183261904Y-94443571D01*
X182423809Y-94634047D02*
X182995238Y-94824523D01*
X182995238Y-94329285D01*
X182728571Y-93681666D02*
X183261904Y-93681666D01*
X182423809Y-93872142D02*
X182995238Y-94062619D01*
X182995238Y-93567380D01*
G04 #@! TO.C,D45*
X202311904Y-95586428D02*
X201511904Y-95586428D01*
X201511904Y-95395952D01*
X201550000Y-95281666D01*
X201626190Y-95205476D01*
X201702380Y-95167380D01*
X201854761Y-95129285D01*
X201969047Y-95129285D01*
X202121428Y-95167380D01*
X202197619Y-95205476D01*
X202273809Y-95281666D01*
X202311904Y-95395952D01*
X202311904Y-95586428D01*
X201778571Y-94443571D02*
X202311904Y-94443571D01*
X201473809Y-94634047D02*
X202045238Y-94824523D01*
X202045238Y-94329285D01*
X201511904Y-93643571D02*
X201511904Y-94024523D01*
X201892857Y-94062619D01*
X201854761Y-94024523D01*
X201816666Y-93948333D01*
X201816666Y-93757857D01*
X201854761Y-93681666D01*
X201892857Y-93643571D01*
X201969047Y-93605476D01*
X202159523Y-93605476D01*
X202235714Y-93643571D01*
X202273809Y-93681666D01*
X202311904Y-93757857D01*
X202311904Y-93948333D01*
X202273809Y-94024523D01*
X202235714Y-94062619D01*
G04 #@! TO.C,D46*
X221361904Y-95586428D02*
X220561904Y-95586428D01*
X220561904Y-95395952D01*
X220600000Y-95281666D01*
X220676190Y-95205476D01*
X220752380Y-95167380D01*
X220904761Y-95129285D01*
X221019047Y-95129285D01*
X221171428Y-95167380D01*
X221247619Y-95205476D01*
X221323809Y-95281666D01*
X221361904Y-95395952D01*
X221361904Y-95586428D01*
X220828571Y-94443571D02*
X221361904Y-94443571D01*
X220523809Y-94634047D02*
X221095238Y-94824523D01*
X221095238Y-94329285D01*
X220561904Y-93681666D02*
X220561904Y-93834047D01*
X220600000Y-93910238D01*
X220638095Y-93948333D01*
X220752380Y-94024523D01*
X220904761Y-94062619D01*
X221209523Y-94062619D01*
X221285714Y-94024523D01*
X221323809Y-93986428D01*
X221361904Y-93910238D01*
X221361904Y-93757857D01*
X221323809Y-93681666D01*
X221285714Y-93643571D01*
X221209523Y-93605476D01*
X221019047Y-93605476D01*
X220942857Y-93643571D01*
X220904761Y-93681666D01*
X220866666Y-93757857D01*
X220866666Y-93910238D01*
X220904761Y-93986428D01*
X220942857Y-94024523D01*
X221019047Y-94062619D01*
G04 #@! TO.C,D47*
X240411904Y-95586428D02*
X239611904Y-95586428D01*
X239611904Y-95395952D01*
X239650000Y-95281666D01*
X239726190Y-95205476D01*
X239802380Y-95167380D01*
X239954761Y-95129285D01*
X240069047Y-95129285D01*
X240221428Y-95167380D01*
X240297619Y-95205476D01*
X240373809Y-95281666D01*
X240411904Y-95395952D01*
X240411904Y-95586428D01*
X239878571Y-94443571D02*
X240411904Y-94443571D01*
X239573809Y-94634047D02*
X240145238Y-94824523D01*
X240145238Y-94329285D01*
X239611904Y-94100714D02*
X239611904Y-93567380D01*
X240411904Y-93910238D01*
G04 #@! TO.C,D48*
X246043571Y-84161904D02*
X246043571Y-83361904D01*
X246234047Y-83361904D01*
X246348333Y-83400000D01*
X246424523Y-83476190D01*
X246462619Y-83552380D01*
X246500714Y-83704761D01*
X246500714Y-83819047D01*
X246462619Y-83971428D01*
X246424523Y-84047619D01*
X246348333Y-84123809D01*
X246234047Y-84161904D01*
X246043571Y-84161904D01*
X247186428Y-83628571D02*
X247186428Y-84161904D01*
X246995952Y-83323809D02*
X246805476Y-83895238D01*
X247300714Y-83895238D01*
X247719761Y-83704761D02*
X247643571Y-83666666D01*
X247605476Y-83628571D01*
X247567380Y-83552380D01*
X247567380Y-83514285D01*
X247605476Y-83438095D01*
X247643571Y-83400000D01*
X247719761Y-83361904D01*
X247872142Y-83361904D01*
X247948333Y-83400000D01*
X247986428Y-83438095D01*
X248024523Y-83514285D01*
X248024523Y-83552380D01*
X247986428Y-83628571D01*
X247948333Y-83666666D01*
X247872142Y-83704761D01*
X247719761Y-83704761D01*
X247643571Y-83742857D01*
X247605476Y-83780952D01*
X247567380Y-83857142D01*
X247567380Y-84009523D01*
X247605476Y-84085714D01*
X247643571Y-84123809D01*
X247719761Y-84161904D01*
X247872142Y-84161904D01*
X247948333Y-84123809D01*
X247986428Y-84085714D01*
X248024523Y-84009523D01*
X248024523Y-83857142D01*
X247986428Y-83780952D01*
X247948333Y-83742857D01*
X247872142Y-83704761D01*
G04 #@! TO.C,J10*
X41152380Y-48434523D02*
X41866666Y-48434523D01*
X42009523Y-48482142D01*
X42104761Y-48577380D01*
X42152380Y-48720238D01*
X42152380Y-48815476D01*
X42152380Y-47434523D02*
X42152380Y-48005952D01*
X42152380Y-47720238D02*
X41152380Y-47720238D01*
X41295238Y-47815476D01*
X41390476Y-47910714D01*
X41438095Y-48005952D01*
X41152380Y-46815476D02*
X41152380Y-46720238D01*
X41200000Y-46625000D01*
X41247619Y-46577380D01*
X41342857Y-46529761D01*
X41533333Y-46482142D01*
X41771428Y-46482142D01*
X41961904Y-46529761D01*
X42057142Y-46577380D01*
X42104761Y-46625000D01*
X42152380Y-46720238D01*
X42152380Y-46815476D01*
X42104761Y-46910714D01*
X42057142Y-46958333D01*
X41961904Y-47005952D01*
X41771428Y-47053571D01*
X41533333Y-47053571D01*
X41342857Y-47005952D01*
X41247619Y-46958333D01*
X41200000Y-46910714D01*
X41152380Y-46815476D01*
G04 #@! TD*
M02*
